<?xml version="1.0" encoding="utf-8"?>
<!-- Generator: Adobe Illustrator 19.0.0, SVG Export Plug-In . SVG Version: 6.00 Build 0)  -->
<svg version="1.1" id="Layer_1" xmlns="http://www.w3.org/2000/svg" xmlns:xlink="http://www.w3.org/1999/xlink" x="0px" y="0px"
	 viewBox="0 0 262 165" style="enable-background:new 0 0 262 165;" xml:space="preserve">
<style type="text/css">
	.st0{fill:none;stroke:#FFFFFF;stroke-width:2;stroke-miterlimit:10;}
	.st1{fill:none;stroke:#FFFFFF;stroke-miterlimit:10;}
	.st2{fill:#FFFFFF;}
</style>
<g id="XMLID_30_">
	<g id="XMLID_44_">
		<path id="XMLID_55_" class="st0" d="M118.4,40.1c0,1.1-0.9,2.1-2.2,2.5l-18,2.4l-17.1,58.6l-61.6,8.9c-1.3-0.3-2.3-1.5-2.5-2.8
			c-0.2-1.3,0.5-2.3,1.6-3.4l57.2-8.2l17.6-57.2l22.1-3.2C117.1,37.5,118.4,38.8,118.4,40.1z"/>
		<g id="XMLID_50_">
			<polygon id="XMLID_54_" class="st0" points="83,50.9 7.1,61.9 29.6,99.4 71.7,93.3 			"/>
			<path id="XMLID_53_" class="st0" d="M80.9,58.4l-17.4,2.5c-2.9,0-4.8,2.4-4.5,4.2c0.3,1.8,2.8,3.6,5.5,2.8
				c4.8-0.7,14.3-2.1,14.3-2.1"/>
			<path id="XMLID_52_" class="st0" d="M78,69.3l-23.2,3.3c-2.8,0.6-4.1,3.3-3.4,5c0.6,1.3,2.4,2.1,4.4,1.8c6.8-1,20.4-2.9,20.4-2.9
				"/>
			<path id="XMLID_51_" class="st0" d="M75.6,80.7l-23.8,3.4c-2.5,0.4-4.1,2.4-3.7,4.4c0.4,1.8,2.5,3,4.7,2.6c6.8-1,20.7-3,20.7-3"
				/>
		</g>
		<circle id="XMLID_49_" class="st0" cx="70.6" cy="112.9" r="4.7"/>
		<circle id="XMLID_48_" class="st1" cx="30.2" cy="118.7" r="2.5"/>
		<circle id="XMLID_47_" class="st1" cx="70.6" cy="112.9" r="2.5"/>
		<circle id="XMLID_46_" class="st0" cx="30.3" cy="118.7" r="4.7"/>
		<path id="XMLID_45_" class="st0" d="M68.7,53.2"/>
	</g>
	<g id="XMLID_31_">
		<path id="XMLID_62_" class="st1" d="M135,198.3"/>
		<g id="XMLID_56_">
			<path id="XMLID_61_" class="st1" d="M241.4,78.6c0.5,0.7,3.2,4.7,1.8,6.2c-0.1,0.1-0.1,0.1-0.1,0.1l0.7,1.3l4.7-2.4
				c-0.2-0.4-2-5.5-5.6-5.5C242.4,78.4,241.9,78.4,241.4,78.6z"/>
			<path id="XMLID_60_" class="st1" d="M237.4,80.6c0.3,0.8,2.1,5.2,4.1,5c0.1,0,0.3-0.1,0.3-0.1l0.7,1.3l-4.9,2.5
				c-0.2-0.4-3.3-4.9-1.2-7.8C236.7,81.3,237,80.9,237.4,80.6z"/>
			
				<ellipse id="XMLID_59_" transform="matrix(-0.8909 0.4543 -0.4543 -0.8909 493.1208 46.5759)" class="st1" cx="241" cy="82.5" rx="1.1" ry="1.9"/>
			<path id="XMLID_58_" class="st1" d="M247.5,95.4c6.3-4,1.4-10.7,1.4-10.7L238,90.3C238,90.3,240.5,98.1,247.5,95.4z"/>
			<path id="XMLID_57_" class="st1" d="M238.9,78.4c0,0-1.9-4.2-4.6-2.9c-2.6,1.3-4.5,2.6-4.5,2.6s-2.7,2,0.4,6.3
				c1,1.4,1.6,4.2,1.7,4.4c0,0.1,0,0.3-0.1,0.5c-0.1,0.3-0.4,0.4-0.5,0.4c-0.2,0.1-2.7,1.6-3.9,0c-1.4-1.8-1.9-3.8-1.9-3.8l-1,0.4
				c0,0,1.6,4.3,4.1,4.8c1.2,0.2,2.3-0.3,2.3-0.3c0.3-0.1,1.4-0.6,1.8-1.6c0.1-0.2,0.2-0.5,0.2-1c0-1.9-1.8-4.9-2-5.4
				c0,0-2.4-3,1.5-5.6c3.9-2.5,4.7,0.1,4.7,0.1l0.9,1.5L238.9,78.4z"/>
		</g>
	</g>
	<line id="XMLID_35_" class="st1" x1="49.7" y1="60.6" x2="51.3" y2="72"/>
	<line id="XMLID_34_" class="st1" x1="42.1" y1="61.7" x2="45.1" y2="82.4"/>
	<line id="XMLID_33_" class="st1" x1="35" y1="62.6" x2="39.1" y2="91.2"/>
	<line id="XMLID_32_" class="st1" x1="27.2" y1="63.2" x2="32" y2="96.6"/>
	<g id="XMLID_27_">
		<path id="XMLID_28_" class="st2" d="M107.7,102.4c0.3,0.3,0.4,0.6,0.4,1s-0.1,0.7-0.4,1c-0.3,0.3-0.6,0.4-1,0.4h-6v2.8
			c0,1.1-0.2,2.2-0.7,3.2s-1,1.9-1.8,2.6c-0.7,0.7-1.6,1.3-2.6,1.8s-2.1,0.7-3.2,0.7c-0.4,0-0.7-0.1-1-0.4s-0.4-0.6-0.4-1
			s0.1-0.7,0.4-1s0.6-0.4,1-0.4c0.8,0,1.5-0.1,2.2-0.4s1.3-0.7,1.8-1.2c0.5-0.5,0.9-1.1,1.2-1.7c0.3-0.7,0.4-1.4,0.4-2.1V72.6
			c0-0.4,0.1-0.7,0.4-1s0.6-0.4,1-0.4s0.7,0.1,1,0.4s0.4,0.6,0.4,1V102h6C107.1,102,107.4,102.1,107.7,102.4z"/>
		<path id="XMLID_37_" class="st2" d="M177.7,102c0.4,0,0.7,0.1,1,0.4s0.4,0.6,0.4,1s-0.1,0.7-0.4,1c-0.3,0.3-0.6,0.4-1,0.4h-71.6
			c-0.4,0-0.7-0.1-1-0.4c-0.3-0.3-0.4-0.6-0.4-1s0.1-0.7,0.4-1s0.6-0.4,1-0.4h48.4c0.8,0,1.5-0.1,2.1-0.4c0.7-0.3,1.2-0.7,1.7-1.2
			c0.5-0.5,0.9-1.1,1.2-1.7c0.3-0.7,0.4-1.4,0.4-2.1V84.2c0-1.7-0.3-3.3-1-4.8c-0.7-1.5-1.5-2.8-2.7-4c-1.1-1.1-2.4-2-3.9-2.7
			c-1.5-0.7-3.1-1-4.8-1h-21.8c-1.1,0-2.2-0.2-3.2-0.7c-1-0.4-1.9-1-2.6-1.8s-1.3-1.6-1.8-2.6c-0.4-1-0.7-2.1-0.7-3.2v-1.8
			c0-0.4,0.1-0.7,0.4-1c0.3-0.3,0.6-0.4,1-0.4c0.4,0,0.7,0.1,1,0.4c0.3,0.3,0.4,0.6,0.4,1v1.8c0,0.8,0.1,1.5,0.4,2.1
			c0.3,0.7,0.7,1.2,1.2,1.7c0.5,0.5,1.1,0.9,1.8,1.2c0.7,0.3,1.4,0.4,2.2,0.4h21.8c2,0,4,0.4,5.8,1.2c1.8,0.8,3.5,1.9,4.9,3.3
			c1.4,1.4,2.5,3.1,3.3,4.9s1.1,3.8,1.1,5.8v12.3c0,1.1-0.2,2.1-0.6,3c-0.4,0.9-0.9,1.8-1.6,2.5H177.7z M132.9,110.6
			c0-0.5,0.1-1,0.3-1.4c0.2-0.5,0.5-0.8,0.8-1.2s0.7-0.6,1.2-0.8c0.4-0.2,0.9-0.3,1.4-0.3s1,0.1,1.4,0.3c0.4,0.2,0.8,0.5,1.2,0.8
			s0.6,0.7,0.8,1.2c0.2,0.4,0.3,0.9,0.3,1.4s-0.1,1-0.3,1.4c-0.2,0.4-0.5,0.8-0.8,1.2s-0.7,0.6-1.2,0.8s-0.9,0.3-1.4,0.3
			s-1-0.1-1.4-0.3c-0.5-0.2-0.8-0.5-1.2-0.8s-0.6-0.7-0.8-1.2C133,111.6,132.9,111.1,132.9,110.6z"/>
		<path id="XMLID_40_" class="st2" d="M213.6,102.4c0.3,0.3,0.4,0.6,0.4,1s-0.1,0.7-0.4,1c-0.3,0.3-0.6,0.4-1,0.4h-1.1
			c-1.5,0-2.8-0.3-4-1c-1.2-0.7-2.2-1.6-2.9-2.7c-0.7,1.1-1.7,2-2.9,2.7c-1.2,0.7-2.5,1-4,1h-20.5c-0.4,0-0.7-0.1-1-0.4
			c-0.3-0.3-0.4-0.6-0.4-1s0.1-0.7,0.4-1s0.6-0.4,1-0.4h20.5c0.8,0,1.5-0.1,2.1-0.4c0.7-0.3,1.2-0.7,1.8-1.2
			c0.5-0.5,0.9-1.1,1.2-1.8s0.4-1.4,0.4-2.1V70.4c0-0.4,0.1-0.7,0.4-1s0.6-0.4,1-0.4s0.7,0.1,1,0.4s0.4,0.6,0.4,1v26.1
			c0,0.8,0.1,1.5,0.4,2.1c0.3,0.7,0.7,1.2,1.2,1.8c0.5,0.5,1.1,0.9,1.8,1.2c0.7,0.3,1.4,0.4,2.1,0.4h1.1
			C213,102,213.3,102.1,213.6,102.4z M182.9,64.4c0.2,0.4,0.5,0.8,0.8,1.2s0.7,0.6,1.2,0.8s0.9,0.3,1.4,0.3s1-0.1,1.4-0.3
			s0.8-0.5,1.2-0.8s0.6-0.7,0.8-1.2s0.3-0.9,0.3-1.4c0-0.5-0.1-1-0.3-1.4c-0.2-0.4-0.5-0.8-0.8-1.2c-0.3-0.3-0.7-0.6-1.2-0.8
			c-0.4-0.2-0.9-0.3-1.4-0.3s-1,0.1-1.4,0.3c-0.4,0.2-0.8,0.5-1.2,0.8c-0.3,0.3-0.6,0.7-0.8,1.2c-0.2,0.4-0.3,0.9-0.3,1.4
			C182.7,63.5,182.8,64,182.9,64.4z M192.5,64.4c0.2,0.4,0.5,0.8,0.8,1.2s0.7,0.6,1.2,0.8c0.5,0.2,0.9,0.3,1.5,0.3s1-0.1,1.4-0.3
			c0.4-0.2,0.8-0.5,1.2-0.8s0.6-0.7,0.8-1.2c0.2-0.4,0.3-0.9,0.3-1.4c0-0.5-0.1-1-0.3-1.4c-0.2-0.4-0.5-0.8-0.8-1.2
			c-0.3-0.3-0.7-0.6-1.2-0.8c-0.5-0.2-0.9-0.3-1.4-0.3s-1,0.1-1.5,0.3c-0.5,0.2-0.9,0.5-1.2,0.8c-0.3,0.3-0.6,0.7-0.8,1.2
			c-0.2,0.4-0.3,0.9-0.3,1.4C192.2,63.5,192.3,64,192.5,64.4z"/>
		<path id="XMLID_63_" class="st2" d="M253.4,74.2c1.7,1.7,3,3.6,3.9,5.8c0.9,2.2,1.3,4.5,1.3,6.9c0,2.4-0.5,4.7-1.3,6.9
			c-0.9,2.2-2.2,4.1-3.9,5.8c-1.7,1.7-3.6,3-5.8,3.9c-2.2,0.9-4.5,1.3-6.9,1.3s-4.7-0.4-6.9-1.3c-2.2-0.9-4.1-2.2-5.8-3.9
			c-1.5-1.5-2.7-3.2-3.6-5.1c-0.2,0.7-0.4,1.3-0.6,1.9c-0.2,0.6-0.5,1.3-0.8,1.9c-0.4,0.9-1,1.7-1.6,2.5c-0.6,0.8-1.4,1.5-2.2,2.1
			c-0.8,0.6-1.5,1-2.3,1.4s-1.4,0.5-2,0.5h-3c-0.4,0-0.7-0.1-1-0.4c-0.3-0.3-0.4-0.6-0.4-1s0.1-0.7,0.4-1s0.6-0.4,1-0.4h3
			c0.2,0,0.5-0.1,1-0.3c0.5-0.2,1-0.5,1.6-1c0.6-0.5,1.2-1.1,1.7-1.7c0.5-0.6,0.9-1.3,1.2-2c1.5-3.2,2.3-6.6,2.3-10.2
			c0-2.4,0.4-4.7,1.3-6.9c0.9-2.2,2.2-4.1,3.9-5.8c1.7-1.7,3.6-3,5.8-3.9c2.2-0.9,4.5-1.3,6.9-1.3s4.7,0.4,6.9,1.3
			C249.8,71.2,251.7,72.5,253.4,74.2z M240.7,102c2.1,0,4.1-0.4,5.9-1.2c1.8-0.8,3.4-1.9,4.8-3.2c1.4-1.4,2.4-3,3.2-4.8
			c0.8-1.8,1.2-3.8,1.2-5.9s-0.4-4.1-1.2-5.9c-0.8-1.8-1.9-3.4-3.2-4.8c-1.4-1.4-3-2.4-4.8-3.2s-3.8-1.2-5.9-1.2
			c-2.1,0-4.1,0.4-5.9,1.2s-3.4,1.9-4.8,3.2c-1.4,1.4-2.4,3-3.2,4.8c-0.8,1.8-1.2,3.8-1.2,5.9s0.4,4.1,1.2,5.9
			c0.8,1.8,1.9,3.4,3.2,4.8c1.4,1.4,3,2.4,4.8,3.2C236.7,101.6,238.7,102,240.7,102z"/>
	</g>
	<g id="XMLID_14_">
		<path id="XMLID_15_" class="st2" d="M107.7,102.4c0.3,0.3,0.4,0.6,0.4,1s-0.1,0.7-0.4,1c-0.3,0.3-0.6,0.4-1,0.4h-6v2.8
			c0,1.1-0.2,2.2-0.7,3.2s-1,1.9-1.8,2.6c-0.7,0.7-1.6,1.3-2.6,1.8s-2.1,0.7-3.2,0.7c-0.4,0-0.7-0.1-1-0.4s-0.4-0.6-0.4-1
			s0.1-0.7,0.4-1s0.6-0.4,1-0.4c0.8,0,1.5-0.1,2.2-0.4s1.3-0.7,1.8-1.2c0.5-0.5,0.9-1.1,1.2-1.7c0.3-0.7,0.4-1.4,0.4-2.1V72.6
			c0-0.4,0.1-0.7,0.4-1s0.6-0.4,1-0.4s0.7,0.1,1,0.4s0.4,0.6,0.4,1V102h6C107.1,102,107.4,102.1,107.7,102.4z"/>
		<path id="XMLID_17_" class="st2" d="M177.7,102c0.4,0,0.7,0.1,1,0.4s0.4,0.6,0.4,1s-0.1,0.7-0.4,1c-0.3,0.3-0.6,0.4-1,0.4h-71.6
			c-0.4,0-0.7-0.1-1-0.4c-0.3-0.3-0.4-0.6-0.4-1s0.1-0.7,0.4-1s0.6-0.4,1-0.4h48.4c0.8,0,1.5-0.1,2.1-0.4c0.7-0.3,1.2-0.7,1.7-1.2
			c0.5-0.5,0.9-1.1,1.2-1.7c0.3-0.7,0.4-1.4,0.4-2.1V84.2c0-1.7-0.3-3.3-1-4.8c-0.7-1.5-1.5-2.8-2.7-4c-1.1-1.1-2.4-2-3.9-2.7
			c-1.5-0.7-3.1-1-4.8-1h-21.8c-1.1,0-2.2-0.2-3.2-0.7c-1-0.4-1.9-1-2.6-1.8s-1.3-1.6-1.8-2.6c-0.4-1-0.7-2.1-0.7-3.2v-1.8
			c0-0.4,0.1-0.7,0.4-1c0.3-0.3,0.6-0.4,1-0.4c0.4,0,0.7,0.1,1,0.4c0.3,0.3,0.4,0.6,0.4,1v1.8c0,0.8,0.1,1.5,0.4,2.1
			c0.3,0.7,0.7,1.2,1.2,1.7c0.5,0.5,1.1,0.9,1.8,1.2c0.7,0.3,1.4,0.4,2.2,0.4h21.8c2,0,4,0.4,5.8,1.2c1.8,0.8,3.5,1.9,4.9,3.3
			c1.4,1.4,2.5,3.1,3.3,4.9s1.1,3.8,1.1,5.8v12.3c0,1.1-0.2,2.1-0.6,3c-0.4,0.9-0.9,1.8-1.6,2.5H177.7z M132.9,110.6
			c0-0.5,0.1-1,0.3-1.4c0.2-0.5,0.5-0.8,0.8-1.2s0.7-0.6,1.2-0.8c0.4-0.2,0.9-0.3,1.4-0.3s1,0.1,1.4,0.3c0.4,0.2,0.8,0.5,1.2,0.8
			s0.6,0.7,0.8,1.2c0.2,0.4,0.3,0.9,0.3,1.4s-0.1,1-0.3,1.4c-0.2,0.4-0.5,0.8-0.8,1.2s-0.7,0.6-1.2,0.8s-0.9,0.3-1.4,0.3
			s-1-0.1-1.4-0.3c-0.5-0.2-0.8-0.5-1.2-0.8s-0.6-0.7-0.8-1.2C133,111.6,132.9,111.1,132.9,110.6z"/>
		<path id="XMLID_20_" class="st2" d="M213.6,102.4c0.3,0.3,0.4,0.6,0.4,1s-0.1,0.7-0.4,1c-0.3,0.3-0.6,0.4-1,0.4h-1.1
			c-1.5,0-2.8-0.3-4-1c-1.2-0.7-2.2-1.6-2.9-2.7c-0.7,1.1-1.7,2-2.9,2.7c-1.2,0.7-2.5,1-4,1h-20.5c-0.4,0-0.7-0.1-1-0.4
			c-0.3-0.3-0.4-0.6-0.4-1s0.1-0.7,0.4-1s0.6-0.4,1-0.4h20.5c0.8,0,1.5-0.1,2.1-0.4c0.7-0.3,1.2-0.7,1.8-1.2
			c0.5-0.5,0.9-1.1,1.2-1.8s0.4-1.4,0.4-2.1V70.4c0-0.4,0.1-0.7,0.4-1s0.6-0.4,1-0.4s0.7,0.1,1,0.4s0.4,0.6,0.4,1v26.1
			c0,0.8,0.1,1.5,0.4,2.1c0.3,0.7,0.7,1.2,1.2,1.8c0.5,0.5,1.1,0.9,1.8,1.2c0.7,0.3,1.4,0.4,2.1,0.4h1.1
			C213,102,213.3,102.1,213.6,102.4z M182.9,64.4c0.2,0.4,0.5,0.8,0.8,1.2s0.7,0.6,1.2,0.8s0.9,0.3,1.4,0.3s1-0.1,1.4-0.3
			s0.8-0.5,1.2-0.8s0.6-0.7,0.8-1.2s0.3-0.9,0.3-1.4c0-0.5-0.1-1-0.3-1.4c-0.2-0.4-0.5-0.8-0.8-1.2c-0.3-0.3-0.7-0.6-1.2-0.8
			c-0.4-0.2-0.9-0.3-1.4-0.3s-1,0.1-1.4,0.3c-0.4,0.2-0.8,0.5-1.2,0.8c-0.3,0.3-0.6,0.7-0.8,1.2c-0.2,0.4-0.3,0.9-0.3,1.4
			C182.7,63.5,182.8,64,182.9,64.4z M192.5,64.4c0.2,0.4,0.5,0.8,0.8,1.2s0.7,0.6,1.2,0.8c0.5,0.2,0.9,0.3,1.5,0.3s1-0.1,1.4-0.3
			c0.4-0.2,0.8-0.5,1.2-0.8s0.6-0.7,0.8-1.2c0.2-0.4,0.3-0.9,0.3-1.4c0-0.5-0.1-1-0.3-1.4c-0.2-0.4-0.5-0.8-0.8-1.2
			c-0.3-0.3-0.7-0.6-1.2-0.8c-0.5-0.2-0.9-0.3-1.4-0.3s-1,0.1-1.5,0.3c-0.5,0.2-0.9,0.5-1.2,0.8c-0.3,0.3-0.6,0.7-0.8,1.2
			c-0.2,0.4-0.3,0.9-0.3,1.4C192.2,63.5,192.3,64,192.5,64.4z"/>
		<path id="XMLID_24_" class="st2" d="M253.4,74.2c1.7,1.7,3,3.6,3.9,5.8c0.9,2.2,1.3,4.5,1.3,6.9c0,2.4-0.5,4.7-1.3,6.9
			c-0.9,2.2-2.2,4.1-3.9,5.8c-1.7,1.7-3.6,3-5.8,3.9c-2.2,0.9-4.5,1.3-6.9,1.3s-4.7-0.4-6.9-1.3c-2.2-0.9-4.1-2.2-5.8-3.9
			c-1.5-1.5-2.7-3.2-3.6-5.1c-0.2,0.7-0.4,1.3-0.6,1.9c-0.2,0.6-0.5,1.3-0.8,1.9c-0.4,0.9-1,1.7-1.6,2.5c-0.6,0.8-1.4,1.5-2.2,2.1
			c-0.8,0.6-1.5,1-2.3,1.4s-1.4,0.5-2,0.5h-3c-0.4,0-0.7-0.1-1-0.4c-0.3-0.3-0.4-0.6-0.4-1s0.1-0.7,0.4-1s0.6-0.4,1-0.4h3
			c0.2,0,0.5-0.1,1-0.3c0.5-0.2,1-0.5,1.6-1c0.6-0.5,1.2-1.1,1.7-1.7c0.5-0.6,0.9-1.3,1.2-2c1.5-3.2,2.3-6.6,2.3-10.2
			c0-2.4,0.4-4.7,1.3-6.9c0.9-2.2,2.2-4.1,3.9-5.8c1.7-1.7,3.6-3,5.8-3.9c2.2-0.9,4.5-1.3,6.9-1.3s4.7,0.4,6.9,1.3
			C249.8,71.2,251.7,72.5,253.4,74.2z M240.7,102c2.1,0,4.1-0.4,5.9-1.2c1.8-0.8,3.4-1.9,4.8-3.2c1.4-1.4,2.4-3,3.2-4.8
			c0.8-1.8,1.2-3.8,1.2-5.9s-0.4-4.1-1.2-5.9c-0.8-1.8-1.9-3.4-3.2-4.8c-1.4-1.4-3-2.4-4.8-3.2s-3.8-1.2-5.9-1.2
			c-2.1,0-4.1,0.4-5.9,1.2s-3.4,1.9-4.8,3.2c-1.4,1.4-2.4,3-3.2,4.8c-0.8,1.8-1.2,3.8-1.2,5.9s0.4,4.1,1.2,5.9
			c0.8,1.8,1.9,3.4,3.2,4.8c1.4,1.4,3,2.4,4.8,3.2C236.7,101.6,238.7,102,240.7,102z"/>
	</g>
	<g id="XMLID_36_">
		<path id="XMLID_2_" class="st2" d="M107.7,102.4c0.3,0.3,0.4,0.6,0.4,1s-0.1,0.7-0.4,1c-0.3,0.3-0.6,0.4-1,0.4h-6v2.8
			c0,1.1-0.2,2.2-0.7,3.2s-1,1.9-1.8,2.6c-0.7,0.7-1.6,1.3-2.6,1.8s-2.1,0.7-3.2,0.7c-0.4,0-0.7-0.1-1-0.4s-0.4-0.6-0.4-1
			s0.1-0.7,0.4-1s0.6-0.4,1-0.4c0.8,0,1.5-0.1,2.2-0.4s1.3-0.7,1.8-1.2c0.5-0.5,0.9-1.1,1.2-1.7c0.3-0.7,0.4-1.4,0.4-2.1V72.6
			c0-0.4,0.1-0.7,0.4-1s0.6-0.4,1-0.4s0.7,0.1,1,0.4s0.4,0.6,0.4,1V102h6C107.1,102,107.4,102.1,107.7,102.4z"/>
		<path id="XMLID_4_" class="st2" d="M177.7,102c0.4,0,0.7,0.1,1,0.4s0.4,0.6,0.4,1s-0.1,0.7-0.4,1c-0.3,0.3-0.6,0.4-1,0.4h-71.6
			c-0.4,0-0.7-0.1-1-0.4c-0.3-0.3-0.4-0.6-0.4-1s0.1-0.7,0.4-1s0.6-0.4,1-0.4h48.4c0.8,0,1.5-0.1,2.1-0.4c0.7-0.3,1.2-0.7,1.7-1.2
			c0.5-0.5,0.9-1.1,1.2-1.7c0.3-0.7,0.4-1.4,0.4-2.1V84.2c0-1.7-0.3-3.3-1-4.8c-0.7-1.5-1.5-2.8-2.7-4c-1.1-1.1-2.4-2-3.9-2.7
			c-1.5-0.7-3.1-1-4.8-1h-21.8c-1.1,0-2.2-0.2-3.2-0.7c-1-0.4-1.9-1-2.6-1.8s-1.3-1.6-1.8-2.6c-0.4-1-0.7-2.1-0.7-3.2v-1.8
			c0-0.4,0.1-0.7,0.4-1c0.3-0.3,0.6-0.4,1-0.4c0.4,0,0.7,0.1,1,0.4c0.3,0.3,0.4,0.6,0.4,1v1.8c0,0.8,0.1,1.5,0.4,2.1
			c0.3,0.7,0.7,1.2,1.2,1.7c0.5,0.5,1.1,0.9,1.8,1.2c0.7,0.3,1.4,0.4,2.2,0.4h21.8c2,0,4,0.4,5.8,1.2c1.8,0.8,3.5,1.9,4.9,3.3
			c1.4,1.4,2.5,3.1,3.3,4.9s1.1,3.8,1.1,5.8v12.3c0,1.1-0.2,2.1-0.6,3c-0.4,0.9-0.9,1.8-1.6,2.5H177.7z M132.9,110.6
			c0-0.5,0.1-1,0.3-1.4c0.2-0.5,0.5-0.8,0.8-1.2s0.7-0.6,1.2-0.8c0.4-0.2,0.9-0.3,1.4-0.3s1,0.1,1.4,0.3c0.4,0.2,0.8,0.5,1.2,0.8
			s0.6,0.7,0.8,1.2c0.2,0.4,0.3,0.9,0.3,1.4s-0.1,1-0.3,1.4c-0.2,0.4-0.5,0.8-0.8,1.2s-0.7,0.6-1.2,0.8s-0.9,0.3-1.4,0.3
			s-1-0.1-1.4-0.3c-0.5-0.2-0.8-0.5-1.2-0.8s-0.6-0.7-0.8-1.2C133,111.6,132.9,111.1,132.9,110.6z"/>
		<path id="XMLID_7_" class="st2" d="M213.6,102.4c0.3,0.3,0.4,0.6,0.4,1s-0.1,0.7-0.4,1c-0.3,0.3-0.6,0.4-1,0.4h-1.1
			c-1.5,0-2.8-0.3-4-1c-1.2-0.7-2.2-1.6-2.9-2.7c-0.7,1.1-1.7,2-2.9,2.7c-1.2,0.7-2.5,1-4,1h-20.5c-0.4,0-0.7-0.1-1-0.4
			c-0.3-0.3-0.4-0.6-0.4-1s0.1-0.7,0.4-1s0.6-0.4,1-0.4h20.5c0.8,0,1.5-0.1,2.1-0.4c0.7-0.3,1.2-0.7,1.8-1.2
			c0.5-0.5,0.9-1.1,1.2-1.8s0.4-1.4,0.4-2.1V70.4c0-0.4,0.1-0.7,0.4-1s0.6-0.4,1-0.4s0.7,0.1,1,0.4s0.4,0.6,0.4,1v26.1
			c0,0.8,0.1,1.5,0.4,2.1c0.3,0.7,0.7,1.2,1.2,1.8c0.5,0.5,1.1,0.9,1.8,1.2c0.7,0.3,1.4,0.4,2.1,0.4h1.1
			C213,102,213.3,102.1,213.6,102.4z M182.9,64.4c0.2,0.4,0.5,0.8,0.8,1.2s0.7,0.6,1.2,0.8s0.9,0.3,1.4,0.3s1-0.1,1.4-0.3
			s0.8-0.5,1.2-0.8s0.6-0.7,0.8-1.2s0.3-0.9,0.3-1.4c0-0.5-0.1-1-0.3-1.4c-0.2-0.4-0.5-0.8-0.8-1.2c-0.3-0.3-0.7-0.6-1.2-0.8
			c-0.4-0.2-0.9-0.3-1.4-0.3s-1,0.1-1.4,0.3c-0.4,0.2-0.8,0.5-1.2,0.8c-0.3,0.3-0.6,0.7-0.8,1.2c-0.2,0.4-0.3,0.9-0.3,1.4
			C182.7,63.5,182.8,64,182.9,64.4z M192.5,64.4c0.2,0.4,0.5,0.8,0.8,1.2s0.7,0.6,1.2,0.8c0.5,0.2,0.9,0.3,1.5,0.3s1-0.1,1.4-0.3
			c0.4-0.2,0.8-0.5,1.2-0.8s0.6-0.7,0.8-1.2c0.2-0.4,0.3-0.9,0.3-1.4c0-0.5-0.1-1-0.3-1.4c-0.2-0.4-0.5-0.8-0.8-1.2
			c-0.3-0.3-0.7-0.6-1.2-0.8c-0.5-0.2-0.9-0.3-1.4-0.3s-1,0.1-1.5,0.3c-0.5,0.2-0.9,0.5-1.2,0.8c-0.3,0.3-0.6,0.7-0.8,1.2
			c-0.2,0.4-0.3,0.9-0.3,1.4C192.2,63.5,192.3,64,192.5,64.4z"/>
		<path id="XMLID_11_" class="st2" d="M253.4,74.2c1.7,1.7,3,3.6,3.9,5.8c0.9,2.2,1.3,4.5,1.3,6.9c0,2.4-0.5,4.7-1.3,6.9
			c-0.9,2.2-2.2,4.1-3.9,5.8c-1.7,1.7-3.6,3-5.8,3.9c-2.2,0.9-4.5,1.3-6.9,1.3s-4.7-0.4-6.9-1.3c-2.2-0.9-4.1-2.2-5.8-3.9
			c-1.5-1.5-2.7-3.2-3.6-5.1c-0.2,0.7-0.4,1.3-0.6,1.9c-0.2,0.6-0.5,1.3-0.8,1.9c-0.4,0.9-1,1.7-1.6,2.5c-0.6,0.8-1.4,1.5-2.2,2.1
			c-0.8,0.6-1.5,1-2.3,1.4s-1.4,0.5-2,0.5h-3c-0.4,0-0.7-0.1-1-0.4c-0.3-0.3-0.4-0.6-0.4-1s0.1-0.7,0.4-1s0.6-0.4,1-0.4h3
			c0.2,0,0.5-0.1,1-0.3c0.5-0.2,1-0.5,1.6-1c0.6-0.5,1.2-1.1,1.7-1.7c0.5-0.6,0.9-1.3,1.2-2c1.5-3.2,2.3-6.6,2.3-10.2
			c0-2.4,0.4-4.7,1.3-6.9c0.9-2.2,2.2-4.1,3.9-5.8c1.7-1.7,3.6-3,5.8-3.9c2.2-0.9,4.5-1.3,6.9-1.3s4.7,0.4,6.9,1.3
			C249.8,71.2,251.7,72.5,253.4,74.2z M240.7,102c2.1,0,4.1-0.4,5.9-1.2c1.8-0.8,3.4-1.9,4.8-3.2c1.4-1.4,2.4-3,3.2-4.8
			c0.8-1.8,1.2-3.8,1.2-5.9s-0.4-4.1-1.2-5.9c-0.8-1.8-1.9-3.4-3.2-4.8c-1.4-1.4-3-2.4-4.8-3.2s-3.8-1.2-5.9-1.2
			c-2.1,0-4.1,0.4-5.9,1.2s-3.4,1.9-4.8,3.2c-1.4,1.4-2.4,3-3.2,4.8c-0.8,1.8-1.2,3.8-1.2,5.9s0.4,4.1,1.2,5.9
			c0.8,1.8,1.9,3.4,3.2,4.8c1.4,1.4,3,2.4,4.8,3.2C236.7,101.6,238.7,102,240.7,102z"/>
	</g>
</g>
</svg>
