<?xml version="1.0" encoding="utf-8"?>
<!-- Generator: Adobe Illustrator 19.0.0, SVG Export Plug-In . SVG Version: 6.00 Build 0)  -->
<svg version="1.1" id="Layer_1" xmlns="http://www.w3.org/2000/svg" xmlns:xlink="http://www.w3.org/1999/xlink" x="0px" y="0px"
	 viewBox="0 0 960 560" style="enable-background:new 0 0 960 560;" xml:space="preserve">
<style type="text/css">
	.st0{fill:none;stroke:#FFFFFF;stroke-width:2;stroke-miterlimit:10;}
	.st1{fill:none;stroke:#FFFFFF;stroke-miterlimit:10;}
	.st2{fill:#FFFFFF;}
</style>
<g id="XMLID_31_">
	<g id="XMLID_44_">
		<path id="XMLID_55_" class="st0" d="M378.6,238.5c0,1.6-1.3,3-3.1,3.5l-25.7,3.4l-24.3,83.5l-87.7,12.6c-1.9-0.4-3.3-2.1-3.6-3.9
			c-0.3-1.8,0.7-3.3,2.3-4.8L318,321l25.1-81.4l31.5-4.5C376.8,234.7,378.6,236.5,378.6,238.5z"/>
		<g id="XMLID_50_">
			<polygon id="XMLID_54_" class="st0" points="328.2,253.8 220,269.4 252.1,322.8 312.1,314.2 			"/>
			<path id="XMLID_53_" class="st0" d="M325.1,264.5l-24.7,3.6c-4.2,0-6.8,3.5-6.5,6c0.4,2.6,3.9,5.2,7.9,4c6.8-1,20.4-2.9,20.4-2.9
				"/>
			<path id="XMLID_52_" class="st0" d="M321.1,279.9l-33,4.8c-4,0.9-5.8,4.7-4.8,7.1c0.8,1.9,3.4,3,6.2,2.6
				c9.7-1.4,29.1-4.2,29.1-4.2"/>
			<path id="XMLID_51_" class="st0" d="M317.6,296.2l-33.8,4.9c-3.5,0.5-5.9,3.5-5.3,6.2c0.5,2.5,3.5,4.2,6.7,3.8
				c9.7-1.4,29.5-4.2,29.5-4.2"/>
		</g>
		<circle id="XMLID_49_" class="st0" cx="310.5" cy="342.1" r="6.7"/>
		<circle id="XMLID_48_" class="st1" cx="253" cy="350.3" r="3.5"/>
		<circle id="XMLID_47_" class="st1" cx="310.5" cy="342.1" r="3.5"/>
		<circle id="XMLID_46_" class="st0" cx="253.1" cy="350.3" r="6.7"/>
		<path id="XMLID_45_" class="st0" d="M307.8,257"/>
	</g>
	<g id="XMLID_28_">
		<path id="XMLID_62_" class="st1" d="M402.2,463.8"/>
		<g id="XMLID_56_">
			<path id="XMLID_61_" class="st1" d="M553.8,293.2c0.7,1,4.5,6.7,2.5,8.9c-0.1,0.1-0.2,0.2-0.2,0.2l1,1.9l6.7-3.4
				c-0.2-0.6-2.9-7.9-8-7.9C555.2,292.9,554.5,293,553.8,293.2z"/>
			<path id="XMLID_60_" class="st1" d="M548.1,296.1c0.4,1.1,3,7.5,5.9,7.2c0.1,0,0.4-0.1,0.5-0.1l1,1.9l-7,3.6
				c-0.3-0.5-4.7-7-1.7-11.1C547.1,297.1,547.5,296.6,548.1,296.1z"/>
			
				<ellipse id="XMLID_59_" transform="matrix(-0.8909 0.4543 -0.4543 -0.8909 1181.6461 313.7352)" class="st1" cx="553.1" cy="298.8" rx="1.5" ry="2.7"/>
			<path id="XMLID_58_" class="st1" d="M562.4,317.1c9-5.7,2.1-15.2,2.1-15.2l-15.6,7.9C548.8,309.8,552.5,321.1,562.4,317.1z"/>
			<path id="XMLID_57_" class="st1" d="M550.2,292.9c0,0-2.8-6-6.5-4.2c-3.8,1.8-6.4,3.7-6.4,3.7s-3.8,2.8,0.5,9
				c1.4,2,2.2,5.9,2.4,6.3c0,0.1,0,0.4-0.1,0.7c-0.2,0.4-0.6,0.6-0.7,0.6c-0.2,0.1-3.9,2.3-5.6,0c-2-2.6-2.7-5.4-2.7-5.4l-1.4,0.5
				c0,0,2.3,6.2,5.9,6.8c1.8,0.3,3.3-0.4,3.3-0.4c0.4-0.2,1.9-0.8,2.6-2.3c0.1-0.3,0.3-0.7,0.2-1.4c-0.1-2.7-2.5-6.9-2.9-7.6
				c0,0-3.4-4.3,2.1-7.9c5.5-3.6,6.7,0.1,6.7,0.1l1.3,2.1L550.2,292.9z"/>
		</g>
	</g>
	<line id="XMLID_35_" class="st1" x1="280.7" y1="267.7" x2="283.1" y2="283.9"/>
	<line id="XMLID_34_" class="st1" x1="269.9" y1="269.2" x2="274.1" y2="298.6"/>
	<line id="XMLID_33_" class="st1" x1="259.8" y1="270.4" x2="265.6" y2="311.1"/>
	<line id="XMLID_32_" class="st1" x1="248.6" y1="271.3" x2="255.5" y2="318.8"/>
	<g id="XMLID_27_">
		<path id="XMLID_29_" class="st2" d="M363.3,327.1c0.4,0.4,0.6,0.8,0.6,1.4c0,0.5-0.2,1-0.6,1.4c-0.4,0.4-0.8,0.6-1.4,0.6h-8.6v3.9
			c0,1.6-0.3,3.2-0.9,4.6c-0.6,1.4-1.5,2.7-2.5,3.7s-2.3,1.9-3.7,2.5c-1.4,0.6-3,0.9-4.6,0.9c-0.5,0-1-0.2-1.4-0.6s-0.6-0.8-0.6-1.4
			s0.2-1,0.6-1.4s0.8-0.6,1.4-0.6c1.1,0,2.1-0.2,3.1-0.6c1-0.4,1.8-1,2.5-1.7c0.7-0.7,1.3-1.5,1.7-2.5c0.4-0.9,0.6-2,0.6-3v-49.6
			c0-0.5,0.2-1,0.6-1.4s0.8-0.6,1.4-0.6c0.5,0,1,0.2,1.4,0.6c0.4,0.4,0.6,0.8,0.6,1.4v41.8h8.6C362.5,326.5,362.9,326.7,363.3,327.1
			z"/>
		<path id="XMLID_37_" class="st2" d="M463.1,326.5c0.5,0,1,0.2,1.4,0.6c0.4,0.4,0.6,0.8,0.6,1.4c0,0.5-0.2,1-0.6,1.4
			c-0.4,0.4-0.8,0.6-1.4,0.6h-102c-0.5,0-1-0.2-1.4-0.6c-0.4-0.4-0.6-0.8-0.6-1.4c0-0.5,0.2-1,0.6-1.4c0.4-0.4,0.8-0.6,1.4-0.6h69
			c1.1,0,2.1-0.2,3-0.6c0.9-0.4,1.8-1,2.5-1.7c0.7-0.7,1.3-1.5,1.7-2.5c0.4-0.9,0.6-2,0.6-3v-17.6c0-2.4-0.5-4.7-1.4-6.9
			c-0.9-2.1-2.2-4-3.8-5.6c-1.6-1.6-3.5-2.9-5.6-3.8c-2.1-0.9-4.4-1.4-6.9-1.4h-31c-1.6,0-3.2-0.3-4.6-0.9s-2.7-1.5-3.7-2.5
			c-1.1-1.1-1.9-2.3-2.5-3.7c-0.6-1.4-0.9-3-0.9-4.6v-2.5c0-0.5,0.2-1,0.6-1.4c0.4-0.4,0.8-0.6,1.4-0.6s1,0.2,1.4,0.6
			c0.4,0.4,0.6,0.8,0.6,1.4v2.5c0,1.1,0.2,2.1,0.6,3c0.4,0.9,1,1.8,1.7,2.5c0.7,0.7,1.5,1.3,2.5,1.7c1,0.4,2,0.6,3.1,0.6h31
			c2.9,0,5.7,0.6,8.3,1.7c2.6,1.1,4.9,2.7,7,4.7c2,2,3.6,4.4,4.7,7c1.1,2.6,1.6,5.4,1.6,8.3v17.6c0,1.5-0.3,3-0.8,4.3
			c-0.5,1.3-1.3,2.5-2.2,3.5H463.1z M399.2,338.8c0-0.7,0.1-1.4,0.4-2.1c0.3-0.6,0.6-1.2,1.1-1.7c0.5-0.5,1-0.9,1.7-1.1
			c0.6-0.3,1.3-0.4,2.1-0.4c0.7,0,1.4,0.1,2.1,0.4c0.6,0.3,1.2,0.6,1.7,1.1c0.5,0.5,0.9,1,1.1,1.7c0.3,0.6,0.4,1.3,0.4,2.1
			c0,0.7-0.1,1.4-0.4,2.1c-0.3,0.6-0.6,1.2-1.1,1.7c-0.5,0.5-1,0.9-1.7,1.2s-1.3,0.4-2.1,0.4c-0.7,0-1.4-0.1-2.1-0.4
			c-0.6-0.3-1.2-0.7-1.7-1.2c-0.5-0.5-0.9-1-1.1-1.7C399.3,340.2,399.2,339.5,399.2,338.8z"/>
		<path id="XMLID_40_" class="st2" d="M514.1,327.1c0.4,0.4,0.6,0.8,0.6,1.4c0,0.5-0.2,1-0.6,1.4c-0.4,0.4-0.8,0.6-1.4,0.6h-1.6
			c-2.1,0-4-0.5-5.7-1.4c-1.7-0.9-3.1-2.2-4.2-3.8c-1.1,1.6-2.4,2.9-4.2,3.8c-1.7,0.9-3.6,1.4-5.7,1.4h-29.2c-0.5,0-1-0.2-1.4-0.6
			c-0.4-0.4-0.6-0.8-0.6-1.4c0-0.5,0.2-1,0.6-1.4c0.4-0.4,0.8-0.6,1.4-0.6h29.2c1.1,0,2.1-0.2,3-0.6c0.9-0.4,1.8-1,2.5-1.7
			s1.3-1.6,1.7-2.5c0.4-0.9,0.6-2,0.6-3v-37.2c0-0.5,0.2-1,0.6-1.4s0.8-0.6,1.4-0.6s1,0.2,1.4,0.6s0.6,0.8,0.6,1.4v37.2
			c0,1.1,0.2,2.1,0.6,3s1,1.8,1.7,2.5s1.6,1.3,2.5,1.7c0.9,0.4,2,0.6,3,0.6h1.6C513.2,326.5,513.7,326.7,514.1,327.1z M470.5,273
			c0.3,0.6,0.6,1.2,1.1,1.7c0.5,0.5,1,0.9,1.7,1.2c0.6,0.3,1.3,0.4,2.1,0.4c0.7,0,1.4-0.1,2.1-0.4s1.2-0.7,1.7-1.2
			c0.5-0.5,0.9-1,1.2-1.7c0.3-0.6,0.4-1.3,0.4-2.1s-0.1-1.4-0.4-2.1c-0.3-0.6-0.7-1.2-1.2-1.7c-0.5-0.5-1-0.9-1.7-1.1
			c-0.6-0.3-1.3-0.4-2.1-0.4c-0.7,0-1.4,0.1-2.1,0.4c-0.6,0.3-1.2,0.6-1.7,1.1c-0.5,0.5-0.9,1-1.1,1.7c-0.3,0.6-0.4,1.3-0.4,2.1
			S470.2,272.4,470.5,273z M484.1,273c0.3,0.6,0.6,1.2,1.1,1.7c0.5,0.5,1,0.9,1.7,1.2c0.7,0.3,1.4,0.4,2.1,0.4
			c0.7,0,1.4-0.1,2.1-0.4c0.6-0.3,1.2-0.7,1.7-1.2c0.5-0.5,0.9-1,1.1-1.7c0.3-0.6,0.4-1.3,0.4-2.1s-0.1-1.4-0.4-2.1
			c-0.3-0.6-0.6-1.2-1.1-1.7c-0.5-0.5-1-0.9-1.7-1.1c-0.6-0.3-1.3-0.4-2.1-0.4c-0.7,0-1.4,0.1-2.1,0.4c-0.7,0.3-1.2,0.6-1.7,1.1
			c-0.5,0.5-0.9,1-1.1,1.7c-0.3,0.6-0.4,1.3-0.4,2.1S483.8,272.4,484.1,273z"/>
		<path id="XMLID_63_" class="st2" d="M570.8,286.9c2.4,2.4,4.3,5.2,5.6,8.3c1.3,3.1,1.9,6.3,1.9,9.8c0,3.4-0.6,6.7-1.9,9.8
			c-1.3,3.1-3.1,5.9-5.6,8.3c-2.4,2.4-5.1,4.2-8.2,5.5c-3.1,1.3-6.3,1.9-9.8,1.9c-3.4,0-6.7-0.6-9.8-1.9c-3.1-1.3-5.8-3.1-8.2-5.5
			c-2.2-2.2-3.9-4.6-5.1-7.3c-0.3,0.9-0.6,1.8-0.9,2.7c-0.4,0.9-0.7,1.8-1.2,2.7c-0.6,1.2-1.4,2.4-2.3,3.6c-0.9,1.1-2,2.2-3.1,3
			c-1.1,0.8-2.2,1.5-3.2,1.9c-1.1,0.5-2,0.7-2.8,0.7h-4.3c-0.5,0-1-0.2-1.4-0.6c-0.4-0.4-0.6-0.8-0.6-1.4c0-0.5,0.2-1,0.6-1.4
			c0.4-0.4,0.8-0.6,1.4-0.6h4.3c0.3,0,0.7-0.1,1.4-0.4c0.7-0.3,1.4-0.7,2.3-1.4c0.9-0.7,1.7-1.6,2.4-2.4c0.7-0.9,1.3-1.8,1.8-2.8
			c2.2-4.6,3.3-9.4,3.3-14.5c0-3.4,0.6-6.7,1.9-9.8c1.3-3.1,3.1-5.8,5.6-8.3c2.4-2.4,5.1-4.2,8.2-5.5c3.1-1.3,6.3-1.9,9.8-1.9
			c3.4,0,6.7,0.6,9.8,1.9C565.7,282.7,568.4,284.5,570.8,286.9z M552.8,326.5c3,0,5.8-0.6,8.4-1.7s4.9-2.7,6.8-4.6
			c1.9-1.9,3.5-4.2,4.6-6.8c1.1-2.6,1.7-5.4,1.7-8.4c0-3-0.6-5.8-1.7-8.4c-1.1-2.6-2.7-4.9-4.6-6.8c-1.9-1.9-4.2-3.5-6.8-4.6
			c-2.6-1.1-5.4-1.7-8.4-1.7c-3,0-5.8,0.6-8.4,1.7c-2.6,1.1-4.9,2.7-6.8,4.6c-1.9,1.9-3.5,4.2-4.6,6.8c-1.1,2.6-1.7,5.4-1.7,8.4
			c0,3,0.6,5.8,1.7,8.4c1.1,2.6,2.7,4.9,4.6,6.8s4.2,3.5,6.8,4.6S549.8,326.5,552.8,326.5z"/>
	</g>
	<g id="XMLID_14_">
		<path id="XMLID_15_" class="st2" d="M363.3,327.1c0.4,0.4,0.6,0.8,0.6,1.4c0,0.5-0.2,1-0.6,1.4c-0.4,0.4-0.8,0.6-1.4,0.6h-8.6v3.9
			c0,1.6-0.3,3.2-0.9,4.6c-0.6,1.4-1.5,2.7-2.5,3.7s-2.3,1.9-3.7,2.5c-1.4,0.6-3,0.9-4.6,0.9c-0.5,0-1-0.2-1.4-0.6s-0.6-0.8-0.6-1.4
			s0.2-1,0.6-1.4s0.8-0.6,1.4-0.6c1.1,0,2.1-0.2,3.1-0.6c1-0.4,1.8-1,2.5-1.7c0.7-0.7,1.3-1.5,1.7-2.5c0.4-0.9,0.6-2,0.6-3v-49.6
			c0-0.5,0.2-1,0.6-1.4s0.8-0.6,1.4-0.6c0.5,0,1,0.2,1.4,0.6c0.4,0.4,0.6,0.8,0.6,1.4v41.8h8.6C362.5,326.5,362.9,326.7,363.3,327.1
			z"/>
		<path id="XMLID_17_" class="st2" d="M463.1,326.5c0.5,0,1,0.2,1.4,0.6c0.4,0.4,0.6,0.8,0.6,1.4c0,0.5-0.2,1-0.6,1.4
			c-0.4,0.4-0.8,0.6-1.4,0.6h-102c-0.5,0-1-0.2-1.4-0.6c-0.4-0.4-0.6-0.8-0.6-1.4c0-0.5,0.2-1,0.6-1.4c0.4-0.4,0.8-0.6,1.4-0.6h69
			c1.1,0,2.1-0.2,3-0.6c0.9-0.4,1.8-1,2.5-1.7c0.7-0.7,1.3-1.5,1.7-2.5c0.4-0.9,0.6-2,0.6-3v-17.6c0-2.4-0.5-4.7-1.4-6.9
			c-0.9-2.1-2.2-4-3.8-5.6c-1.6-1.6-3.5-2.9-5.6-3.8c-2.1-0.9-4.4-1.4-6.9-1.4h-31c-1.6,0-3.2-0.3-4.6-0.9s-2.7-1.5-3.7-2.5
			c-1.1-1.1-1.9-2.3-2.5-3.7c-0.6-1.4-0.9-3-0.9-4.6v-2.5c0-0.5,0.2-1,0.6-1.4c0.4-0.4,0.8-0.6,1.4-0.6s1,0.2,1.4,0.6
			c0.4,0.4,0.6,0.8,0.6,1.4v2.5c0,1.1,0.2,2.1,0.6,3c0.4,0.9,1,1.8,1.7,2.5c0.7,0.7,1.5,1.3,2.5,1.7c1,0.4,2,0.6,3.1,0.6h31
			c2.9,0,5.7,0.6,8.3,1.7c2.6,1.1,4.9,2.7,7,4.7c2,2,3.6,4.4,4.7,7c1.1,2.6,1.6,5.4,1.6,8.3v17.6c0,1.5-0.3,3-0.8,4.3
			c-0.5,1.3-1.3,2.5-2.2,3.5H463.1z M399.2,338.8c0-0.7,0.1-1.4,0.4-2.1c0.3-0.6,0.6-1.2,1.1-1.7c0.5-0.5,1-0.9,1.7-1.1
			c0.6-0.3,1.3-0.4,2.1-0.4c0.7,0,1.4,0.1,2.1,0.4c0.6,0.3,1.2,0.6,1.7,1.1c0.5,0.5,0.9,1,1.1,1.7c0.3,0.6,0.4,1.3,0.4,2.1
			c0,0.7-0.1,1.4-0.4,2.1c-0.3,0.6-0.6,1.2-1.1,1.7c-0.5,0.5-1,0.9-1.7,1.2s-1.3,0.4-2.1,0.4c-0.7,0-1.4-0.1-2.1-0.4
			c-0.6-0.3-1.2-0.7-1.7-1.2c-0.5-0.5-0.9-1-1.1-1.7C399.3,340.2,399.2,339.5,399.2,338.8z"/>
		<path id="XMLID_20_" class="st2" d="M514.1,327.1c0.4,0.4,0.6,0.8,0.6,1.4c0,0.5-0.2,1-0.6,1.4c-0.4,0.4-0.8,0.6-1.4,0.6h-1.6
			c-2.1,0-4-0.5-5.7-1.4c-1.7-0.9-3.1-2.2-4.2-3.8c-1.1,1.6-2.4,2.9-4.2,3.8c-1.7,0.9-3.6,1.4-5.7,1.4h-29.2c-0.5,0-1-0.2-1.4-0.6
			c-0.4-0.4-0.6-0.8-0.6-1.4c0-0.5,0.2-1,0.6-1.4c0.4-0.4,0.8-0.6,1.4-0.6h29.2c1.1,0,2.1-0.2,3-0.6c0.9-0.4,1.8-1,2.5-1.7
			s1.3-1.6,1.7-2.5c0.4-0.9,0.6-2,0.6-3v-37.2c0-0.5,0.2-1,0.6-1.4s0.8-0.6,1.4-0.6s1,0.2,1.4,0.6s0.6,0.8,0.6,1.4v37.2
			c0,1.1,0.2,2.1,0.6,3s1,1.8,1.7,2.5s1.6,1.3,2.5,1.7c0.9,0.4,2,0.6,3,0.6h1.6C513.2,326.5,513.7,326.7,514.1,327.1z M470.5,273
			c0.3,0.6,0.6,1.2,1.1,1.7c0.5,0.5,1,0.9,1.7,1.2c0.6,0.3,1.3,0.4,2.1,0.4c0.7,0,1.4-0.1,2.1-0.4s1.2-0.7,1.7-1.2
			c0.5-0.5,0.9-1,1.2-1.7c0.3-0.6,0.4-1.3,0.4-2.1s-0.1-1.4-0.4-2.1c-0.3-0.6-0.7-1.2-1.2-1.7c-0.5-0.5-1-0.9-1.7-1.1
			c-0.6-0.3-1.3-0.4-2.1-0.4c-0.7,0-1.4,0.1-2.1,0.4c-0.6,0.3-1.2,0.6-1.7,1.1c-0.5,0.5-0.9,1-1.1,1.7c-0.3,0.6-0.4,1.3-0.4,2.1
			S470.2,272.4,470.5,273z M484.1,273c0.3,0.6,0.6,1.2,1.1,1.7c0.5,0.5,1,0.9,1.7,1.2c0.7,0.3,1.4,0.4,2.1,0.4
			c0.7,0,1.4-0.1,2.1-0.4c0.6-0.3,1.2-0.7,1.7-1.2c0.5-0.5,0.9-1,1.1-1.7c0.3-0.6,0.4-1.3,0.4-2.1s-0.1-1.4-0.4-2.1
			c-0.3-0.6-0.6-1.2-1.1-1.7c-0.5-0.5-1-0.9-1.7-1.1c-0.6-0.3-1.3-0.4-2.1-0.4c-0.7,0-1.4,0.1-2.1,0.4c-0.7,0.3-1.2,0.6-1.7,1.1
			c-0.5,0.5-0.9,1-1.1,1.7c-0.3,0.6-0.4,1.3-0.4,2.1S483.8,272.4,484.1,273z"/>
		<path id="XMLID_24_" class="st2" d="M570.8,286.9c2.4,2.4,4.3,5.2,5.6,8.3c1.3,3.1,1.9,6.3,1.9,9.8c0,3.4-0.6,6.7-1.9,9.8
			c-1.3,3.1-3.1,5.9-5.6,8.3c-2.4,2.4-5.1,4.2-8.2,5.5c-3.1,1.3-6.3,1.9-9.8,1.9c-3.4,0-6.7-0.6-9.8-1.9c-3.1-1.3-5.8-3.1-8.2-5.5
			c-2.2-2.2-3.9-4.6-5.1-7.3c-0.3,0.9-0.6,1.8-0.9,2.7c-0.4,0.9-0.7,1.8-1.2,2.7c-0.6,1.2-1.4,2.4-2.3,3.6c-0.9,1.1-2,2.2-3.1,3
			c-1.1,0.8-2.2,1.5-3.2,1.9c-1.1,0.5-2,0.7-2.8,0.7h-4.3c-0.5,0-1-0.2-1.4-0.6c-0.4-0.4-0.6-0.8-0.6-1.4c0-0.5,0.2-1,0.6-1.4
			c0.4-0.4,0.8-0.6,1.4-0.6h4.3c0.3,0,0.7-0.1,1.4-0.4c0.7-0.3,1.4-0.7,2.3-1.4c0.9-0.7,1.7-1.6,2.4-2.4c0.7-0.9,1.3-1.8,1.8-2.8
			c2.2-4.6,3.3-9.4,3.3-14.5c0-3.4,0.6-6.7,1.9-9.8c1.3-3.1,3.1-5.8,5.6-8.3c2.4-2.4,5.1-4.2,8.2-5.5c3.1-1.3,6.3-1.9,9.8-1.9
			c3.4,0,6.7,0.6,9.8,1.9C565.7,282.7,568.4,284.5,570.8,286.9z M552.8,326.5c3,0,5.8-0.6,8.4-1.7s4.9-2.7,6.8-4.6
			c1.9-1.9,3.5-4.2,4.6-6.8c1.1-2.6,1.7-5.4,1.7-8.4c0-3-0.6-5.8-1.7-8.4c-1.1-2.6-2.7-4.9-4.6-6.8c-1.9-1.9-4.2-3.5-6.8-4.6
			c-2.6-1.1-5.4-1.7-8.4-1.7c-3,0-5.8,0.6-8.4,1.7c-2.6,1.1-4.9,2.7-6.8,4.6c-1.9,1.9-3.5,4.2-4.6,6.8c-1.1,2.6-1.7,5.4-1.7,8.4
			c0,3,0.6,5.8,1.7,8.4c1.1,2.6,2.7,4.9,4.6,6.8s4.2,3.5,6.8,4.6S549.8,326.5,552.8,326.5z"/>
	</g>
	<g id="XMLID_30_">
		<path id="XMLID_2_" class="st2" d="M363.3,327.1c0.4,0.4,0.6,0.8,0.6,1.4c0,0.5-0.2,1-0.6,1.4c-0.4,0.4-0.8,0.6-1.4,0.6h-8.6v3.9
			c0,1.6-0.3,3.2-0.9,4.6c-0.6,1.4-1.5,2.7-2.5,3.7s-2.3,1.9-3.7,2.5c-1.4,0.6-3,0.9-4.6,0.9c-0.5,0-1-0.2-1.4-0.6s-0.6-0.8-0.6-1.4
			s0.2-1,0.6-1.4s0.8-0.6,1.4-0.6c1.1,0,2.1-0.2,3.1-0.6c1-0.4,1.8-1,2.5-1.7c0.7-0.7,1.3-1.5,1.7-2.5c0.4-0.9,0.6-2,0.6-3v-49.6
			c0-0.5,0.2-1,0.6-1.4s0.8-0.6,1.4-0.6c0.5,0,1,0.2,1.4,0.6c0.4,0.4,0.6,0.8,0.6,1.4v41.8h8.6C362.5,326.5,362.9,326.7,363.3,327.1
			z"/>
		<path id="XMLID_4_" class="st2" d="M463.1,326.5c0.5,0,1,0.2,1.4,0.6c0.4,0.4,0.6,0.8,0.6,1.4c0,0.5-0.2,1-0.6,1.4
			c-0.4,0.4-0.8,0.6-1.4,0.6h-102c-0.5,0-1-0.2-1.4-0.6c-0.4-0.4-0.6-0.8-0.6-1.4c0-0.5,0.2-1,0.6-1.4c0.4-0.4,0.8-0.6,1.4-0.6h69
			c1.1,0,2.1-0.2,3-0.6c0.9-0.4,1.8-1,2.5-1.7c0.7-0.7,1.3-1.5,1.7-2.5c0.4-0.9,0.6-2,0.6-3v-17.6c0-2.4-0.5-4.7-1.4-6.9
			c-0.9-2.1-2.2-4-3.8-5.6c-1.6-1.6-3.5-2.9-5.6-3.8c-2.1-0.9-4.4-1.4-6.9-1.4h-31c-1.6,0-3.2-0.3-4.6-0.9s-2.7-1.5-3.7-2.5
			c-1.1-1.1-1.9-2.3-2.5-3.7c-0.6-1.4-0.9-3-0.9-4.6v-2.5c0-0.5,0.2-1,0.6-1.4c0.4-0.4,0.8-0.6,1.4-0.6s1,0.2,1.4,0.6
			c0.4,0.4,0.6,0.8,0.6,1.4v2.5c0,1.1,0.2,2.1,0.6,3c0.4,0.9,1,1.8,1.7,2.5c0.7,0.7,1.5,1.3,2.5,1.7c1,0.4,2,0.6,3.1,0.6h31
			c2.9,0,5.7,0.6,8.3,1.7c2.6,1.1,4.9,2.7,7,4.7c2,2,3.6,4.4,4.7,7c1.1,2.6,1.6,5.4,1.6,8.3v17.6c0,1.5-0.3,3-0.8,4.3
			c-0.5,1.3-1.3,2.5-2.2,3.5H463.1z M399.2,338.8c0-0.7,0.1-1.4,0.4-2.1c0.3-0.6,0.6-1.2,1.1-1.7c0.5-0.5,1-0.9,1.7-1.1
			c0.6-0.3,1.3-0.4,2.1-0.4c0.7,0,1.4,0.1,2.1,0.4c0.6,0.3,1.2,0.6,1.7,1.1c0.5,0.5,0.9,1,1.1,1.7c0.3,0.6,0.4,1.3,0.4,2.1
			c0,0.7-0.1,1.4-0.4,2.1c-0.3,0.6-0.6,1.2-1.1,1.7c-0.5,0.5-1,0.9-1.7,1.2s-1.3,0.4-2.1,0.4c-0.7,0-1.4-0.1-2.1-0.4
			c-0.6-0.3-1.2-0.7-1.7-1.2c-0.5-0.5-0.9-1-1.1-1.7C399.3,340.2,399.2,339.5,399.2,338.8z"/>
		<path id="XMLID_7_" class="st2" d="M514.1,327.1c0.4,0.4,0.6,0.8,0.6,1.4c0,0.5-0.2,1-0.6,1.4c-0.4,0.4-0.8,0.6-1.4,0.6h-1.6
			c-2.1,0-4-0.5-5.7-1.4c-1.7-0.9-3.1-2.2-4.2-3.8c-1.1,1.6-2.4,2.9-4.2,3.8c-1.7,0.9-3.6,1.4-5.7,1.4h-29.2c-0.5,0-1-0.2-1.4-0.6
			c-0.4-0.4-0.6-0.8-0.6-1.4c0-0.5,0.2-1,0.6-1.4c0.4-0.4,0.8-0.6,1.4-0.6h29.2c1.1,0,2.1-0.2,3-0.6c0.9-0.4,1.8-1,2.5-1.7
			s1.3-1.6,1.7-2.5c0.4-0.9,0.6-2,0.6-3v-37.2c0-0.5,0.2-1,0.6-1.4s0.8-0.6,1.4-0.6s1,0.2,1.4,0.6s0.6,0.8,0.6,1.4v37.2
			c0,1.1,0.2,2.1,0.6,3s1,1.8,1.7,2.5s1.6,1.3,2.5,1.7c0.9,0.4,2,0.6,3,0.6h1.6C513.2,326.5,513.7,326.7,514.1,327.1z M470.5,273
			c0.3,0.6,0.6,1.2,1.1,1.7c0.5,0.5,1,0.9,1.7,1.2c0.6,0.3,1.3,0.4,2.1,0.4c0.7,0,1.4-0.1,2.1-0.4s1.2-0.7,1.7-1.2
			c0.5-0.5,0.9-1,1.2-1.7c0.3-0.6,0.4-1.3,0.4-2.1s-0.1-1.4-0.4-2.1c-0.3-0.6-0.7-1.2-1.2-1.7c-0.5-0.5-1-0.9-1.7-1.1
			c-0.6-0.3-1.3-0.4-2.1-0.4c-0.7,0-1.4,0.1-2.1,0.4c-0.6,0.3-1.2,0.6-1.7,1.1c-0.5,0.5-0.9,1-1.1,1.7c-0.3,0.6-0.4,1.3-0.4,2.1
			S470.2,272.4,470.5,273z M484.1,273c0.3,0.6,0.6,1.2,1.1,1.7c0.5,0.5,1,0.9,1.7,1.2c0.7,0.3,1.4,0.4,2.1,0.4
			c0.7,0,1.4-0.1,2.1-0.4c0.6-0.3,1.2-0.7,1.7-1.2c0.5-0.5,0.9-1,1.1-1.7c0.3-0.6,0.4-1.3,0.4-2.1s-0.1-1.4-0.4-2.1
			c-0.3-0.6-0.6-1.2-1.1-1.7c-0.5-0.5-1-0.9-1.7-1.1c-0.6-0.3-1.3-0.4-2.1-0.4c-0.7,0-1.4,0.1-2.1,0.4c-0.7,0.3-1.2,0.6-1.7,1.1
			c-0.5,0.5-0.9,1-1.1,1.7c-0.3,0.6-0.4,1.3-0.4,2.1S483.8,272.4,484.1,273z"/>
		<path id="XMLID_11_" class="st2" d="M570.8,286.9c2.4,2.4,4.3,5.2,5.6,8.3c1.3,3.1,1.9,6.3,1.9,9.8c0,3.4-0.6,6.7-1.9,9.8
			c-1.3,3.1-3.1,5.9-5.6,8.3c-2.4,2.4-5.1,4.2-8.2,5.5c-3.1,1.3-6.3,1.9-9.8,1.9c-3.4,0-6.7-0.6-9.8-1.9c-3.1-1.3-5.8-3.1-8.2-5.5
			c-2.2-2.2-3.9-4.6-5.1-7.3c-0.3,0.9-0.6,1.8-0.9,2.7c-0.4,0.9-0.7,1.8-1.2,2.7c-0.6,1.2-1.4,2.4-2.3,3.6c-0.9,1.1-2,2.2-3.1,3
			c-1.1,0.8-2.2,1.5-3.2,1.9c-1.1,0.5-2,0.7-2.8,0.7h-4.3c-0.5,0-1-0.2-1.4-0.6c-0.4-0.4-0.6-0.8-0.6-1.4c0-0.5,0.2-1,0.6-1.4
			c0.4-0.4,0.8-0.6,1.4-0.6h4.3c0.3,0,0.7-0.1,1.4-0.4c0.7-0.3,1.4-0.7,2.3-1.4c0.9-0.7,1.7-1.6,2.4-2.4c0.7-0.9,1.3-1.8,1.8-2.8
			c2.2-4.6,3.3-9.4,3.3-14.5c0-3.4,0.6-6.7,1.9-9.8c1.3-3.1,3.1-5.8,5.6-8.3c2.4-2.4,5.1-4.2,8.2-5.5c3.1-1.3,6.3-1.9,9.8-1.9
			c3.4,0,6.7,0.6,9.8,1.9C565.7,282.7,568.4,284.5,570.8,286.9z M552.8,326.5c3,0,5.8-0.6,8.4-1.7s4.9-2.7,6.8-4.6
			c1.9-1.9,3.5-4.2,4.6-6.8c1.1-2.6,1.7-5.4,1.7-8.4c0-3-0.6-5.8-1.7-8.4c-1.1-2.6-2.7-4.9-4.6-6.8c-1.9-1.9-4.2-3.5-6.8-4.6
			c-2.6-1.1-5.4-1.7-8.4-1.7c-3,0-5.8,0.6-8.4,1.7c-2.6,1.1-4.9,2.7-6.8,4.6c-1.9,1.9-3.5,4.2-4.6,6.8c-1.1,2.6-1.7,5.4-1.7,8.4
			c0,3,0.6,5.8,1.7,8.4c1.1,2.6,2.7,4.9,4.6,6.8s4.2,3.5,6.8,4.6S549.8,326.5,552.8,326.5z"/>
	</g>
</g>
</svg>
