<?xml version="1.0" encoding="UTF-8" standalone="no"?>
<svg
   xmlns:dc="http://purl.org/dc/elements/1.1/"
   xmlns:cc="http://creativecommons.org/ns#"
   xmlns:rdf="http://www.w3.org/1999/02/22-rdf-syntax-ns#"
   xmlns:svg="http://www.w3.org/2000/svg"
   xmlns="http://www.w3.org/2000/svg"
   xmlns:sodipodi="http://sodipodi.sourceforge.net/DTD/sodipodi-0.dtd"
   xmlns:inkscape="http://www.inkscape.org/namespaces/inkscape"
   version="1.1"
   id="Layer_1"
   x="0px"
   y="0px"
   viewBox="0 0 960 560"
   style="enable-background:new 0 0 960 560;"
   xml:space="preserve"
   sodipodi:docname="Logo2.svg"
   inkscape:version="1.0.2 (e86c870879, 2021-01-15, custom)"><metadata
   id="metadata49"><rdf:RDF><cc:Work
       rdf:about=""><dc:format>image/svg+xml</dc:format><dc:type
         rdf:resource="http://purl.org/dc/dcmitype/StillImage" /><dc:title /></cc:Work></rdf:RDF></metadata><defs
   id="defs47" /><sodipodi:namedview
   pagecolor="#ffffff"
   bordercolor="#666666"
   borderopacity="1"
   objecttolerance="10"
   gridtolerance="10"
   guidetolerance="10"
   inkscape:pageopacity="0"
   inkscape:pageshadow="2"
   inkscape:window-width="1366"
   inkscape:window-height="705"
   id="namedview45"
   showgrid="false"
   inkscape:zoom="9.9916774"
   inkscape:cx="176.77684"
   inkscape:cy="268.27807"
   inkscape:window-x="-8"
   inkscape:window-y="-8"
   inkscape:window-maximized="1"
   inkscape:current-layer="XMLID_31_"
   inkscape:document-rotation="0" />
<style
   type="text/css"
   id="style2">
	.st0{fill:none;stroke:#FFFFFF;stroke-width:2;stroke-miterlimit:10;}
	.st1{fill:none;stroke:#FFFFFF;stroke-miterlimit:10;}
	.st2{fill:#FFFFFF;}
</style>
<g
   id="XMLID_31_"
   style="fill:#975cf6"
   transform="matrix(2.1765451,0,0,2.0486646,-367.69297,-436.46892)">
	<g
   id="XMLID_44_"
   style="fill:#4ab563">
		<path
   id="XMLID_55_"
   class="st0"
   d="m 378.6,238.5 c 0,1.6 -1.3,3 -3.1,3.5 l -25.7,3.4 -24.3,83.5 -87.7,12.6 c -1.9,-0.4 -3.3,-2.1 -3.6,-3.9 -0.3,-1.8 0.7,-3.3 2.3,-4.8 L 318,321 l 25.1,-81.4 31.5,-4.5 c 2.2,-0.4 4,1.4 4,3.4 z"
   style="fill:#ffffff;fill-opacity:0"
   inkscape:export-xdpi="94.60186"
   inkscape:export-ydpi="94.60186" />
		<g
   id="XMLID_50_"
   style="fill:#4ab563">
			<polygon
   id="XMLID_54_"
   class="st0"
   points="312.1,314.2 328.2,253.8 220,269.4 252.1,322.8 "
   style="fill:#ffffff;fill-opacity:0"
   inkscape:export-xdpi="94.60186"
   inkscape:export-ydpi="94.60186" />
			<path
   id="XMLID_53_"
   class="st0"
   d="m 325.1,264.5 -24.7,3.6 c -4.2,0 -6.8,3.5 -6.5,6 0.4,2.6 3.9,5.2 7.9,4 6.8,-1 20.4,-2.9 20.4,-2.9"
   style="fill:#ffffff;fill-opacity:0"
   inkscape:export-xdpi="94.60186"
   inkscape:export-ydpi="94.60186" />
			<path
   id="XMLID_52_"
   class="st0"
   d="m 321.1,279.9 -33,4.8 c -4,0.9 -5.8,4.7 -4.8,7.1 0.8,1.9 3.4,3 6.2,2.6 9.7,-1.4 29.1,-4.2 29.1,-4.2"
   style="fill:#ffffff;fill-opacity:0"
   inkscape:export-xdpi="94.60186"
   inkscape:export-ydpi="94.60186" />
			<path
   id="XMLID_51_"
   class="st0"
   d="m 317.6,296.2 -33.8,4.9 c -3.5,0.5 -5.9,3.5 -5.3,6.2 0.5,2.5 3.5,4.2 6.7,3.8 9.7,-1.4 29.5,-4.2 29.5,-4.2"
   style="fill:#ffffff;fill-opacity:0"
   inkscape:export-xdpi="94.60186"
   inkscape:export-ydpi="94.60186" />
		</g>
		<circle
   id="XMLID_49_"
   class="st0"
   cx="310.5"
   cy="342.10001"
   r="6.6999998"
   style="fill:#4ab563;fill-opacity:0" />
		<circle
   id="XMLID_48_"
   class="st1"
   cx="253"
   cy="350.29999"
   r="3.5"
   style="fill:#ffffff;fill-opacity:1" />
		<circle
   id="XMLID_47_"
   class="st1"
   cx="310.5"
   cy="342.10001"
   r="3.5"
   style="fill:#ffffff;fill-opacity:1"
   inkscape:export-xdpi="94.60186"
   inkscape:export-ydpi="94.60186" />
		<circle
   id="XMLID_46_"
   class="st0"
   cx="253.10001"
   cy="350.29999"
   r="6.6999998"
   style="fill:#ffffff;fill-opacity:0"
   inkscape:export-xdpi="94.60186"
   inkscape:export-ydpi="94.60186" />
		<path
   id="XMLID_45_"
   class="st0"
   d="M 307.8,257"
   style="fill:#4ab563" />
	</g>
	<g
   id="XMLID_28_"
   style="fill:#975cf6">
		<path
   id="XMLID_62_"
   class="st1"
   d="M 402.2,463.8"
   style="fill:#975cf6" />
		<g
   id="XMLID_56_"
   style="fill:#975cf6">
			<path
   id="XMLID_61_"
   class="st1"
   d="m 553.8,293.2 c 0.7,1 4.5,6.7 2.5,8.9 -0.1,0.1 -0.2,0.2 -0.2,0.2 l 1,1.9 6.7,-3.4 c -0.2,-0.6 -2.9,-7.9 -8,-7.9 -0.6,0 -1.3,0.1 -2,0.3 z"
   style="fill:#ffffff;fill-opacity:1" />
			<path
   id="XMLID_60_"
   class="st1"
   d="m 548.1,296.1 c 0.4,1.1 3,7.5 5.9,7.2 0.1,0 0.4,-0.1 0.5,-0.1 l 1,1.9 -7,3.6 c -0.3,-0.5 -4.7,-7 -1.7,-11.1 0.3,-0.5 0.7,-1 1.3,-1.5 z"
   style="fill:#ffffff;fill-opacity:1" />
			
				<ellipse
   id="XMLID_59_"
   transform="matrix(-0.8909,0.4543,-0.4543,-0.8909,1181.6461,313.7352)"
   class="st1"
   cx="553.09998"
   cy="298.79999"
   rx="1.5"
   ry="2.7"
   style="fill:#ffffff;fill-opacity:1" />
			<path
   id="XMLID_58_"
   class="st1"
   d="m 562.4,317.1 c 9,-5.7 2.1,-15.2 2.1,-15.2 l -15.6,7.9 c -0.1,0 3.6,11.3 13.5,7.3 z"
   style="fill:#ffffff;fill-opacity:1" />
			<path
   id="XMLID_57_"
   class="st1"
   d="m 550.2,292.9 c 0,0 -2.8,-6 -6.5,-4.2 -3.8,1.8 -6.4,3.7 -6.4,3.7 0,0 -3.8,2.8 0.5,9 1.4,2 2.2,5.9 2.4,6.3 0,0.1 0,0.4 -0.1,0.7 -0.2,0.4 -0.6,0.6 -0.7,0.6 -0.2,0.1 -3.9,2.3 -5.6,0 -2,-2.6 -2.7,-5.4 -2.7,-5.4 l -1.4,0.5 c 0,0 2.3,6.2 5.9,6.8 1.8,0.3 3.3,-0.4 3.3,-0.4 0.4,-0.2 1.9,-0.8 2.6,-2.3 0.1,-0.3 0.3,-0.7 0.2,-1.4 -0.1,-2.7 -2.5,-6.9 -2.9,-7.6 0,0 -3.4,-4.3 2.1,-7.9 5.5,-3.6 6.7,0.1 6.7,0.1 l 1.3,2.1 z"
   style="fill:#ffffff;fill-opacity:1" />
		</g>
	</g>
	<line
   id="XMLID_35_"
   class="st1"
   x1="280.70001"
   y1="267.70001"
   x2="283.10001"
   y2="283.89999"
   style="fill:#ffffff;fill-opacity:0"
   inkscape:export-xdpi="94.60186"
   inkscape:export-ydpi="94.60186" />
	<line
   id="XMLID_34_"
   class="st1"
   x1="269.89999"
   y1="269.20001"
   x2="274.10001"
   y2="298.60001"
   style="fill:#ffffff;fill-opacity:1"
   inkscape:export-xdpi="94.60186"
   inkscape:export-ydpi="94.60186" />
	<line
   id="XMLID_33_"
   class="st1"
   x1="259.79999"
   y1="270.39999"
   x2="265.60001"
   y2="311.10001"
   style="fill:#ffffff;fill-opacity:1"
   inkscape:export-xdpi="94.60186"
   inkscape:export-ydpi="94.60186" />
	<line
   id="XMLID_32_"
   class="st1"
   x1="248.60001"
   y1="271.29999"
   x2="255.5"
   y2="318.79999"
   style="fill:#ffffff;fill-opacity:1"
   inkscape:export-xdpi="94.60186"
   inkscape:export-ydpi="94.60186" />
	<g
   id="XMLID_27_"
   style="fill:#ffffff">
		<path
   id="XMLID_29_"
   class="st2"
   d="m 363.3,327.1 c 0.4,0.4 0.6,0.8 0.6,1.4 0,0.5 -0.2,1 -0.6,1.4 -0.4,0.4 -0.8,0.6 -1.4,0.6 h -8.6 v 3.9 c 0,1.6 -0.3,3.2 -0.9,4.6 -0.6,1.4 -1.5,2.7 -2.5,3.7 -1,1 -2.3,1.9 -3.7,2.5 -1.4,0.6 -3,0.9 -4.6,0.9 -0.5,0 -1,-0.2 -1.4,-0.6 -0.4,-0.4 -0.6,-0.8 -0.6,-1.4 0,-0.6 0.2,-1 0.6,-1.4 0.4,-0.4 0.8,-0.6 1.4,-0.6 1.1,0 2.1,-0.2 3.1,-0.6 1,-0.4 1.8,-1 2.5,-1.7 0.7,-0.7 1.3,-1.5 1.7,-2.5 0.4,-0.9 0.6,-2 0.6,-3 v -49.6 c 0,-0.5 0.2,-1 0.6,-1.4 0.4,-0.4 0.8,-0.6 1.4,-0.6 0.5,0 1,0.2 1.4,0.6 0.4,0.4 0.6,0.8 0.6,1.4 v 41.8 h 8.6 c 0.4,0 0.8,0.2 1.2,0.6 z"
   style="fill:#ffffff" />
		<path
   id="XMLID_37_"
   class="st2"
   d="m 463.1,326.5 c 0.5,0 1,0.2 1.4,0.6 0.4,0.4 0.6,0.8 0.6,1.4 0,0.5 -0.2,1 -0.6,1.4 -0.4,0.4 -0.8,0.6 -1.4,0.6 h -102 c -0.5,0 -1,-0.2 -1.4,-0.6 -0.4,-0.4 -0.6,-0.8 -0.6,-1.4 0,-0.5 0.2,-1 0.6,-1.4 0.4,-0.4 0.8,-0.6 1.4,-0.6 h 69 c 1.1,0 2.1,-0.2 3,-0.6 0.9,-0.4 1.8,-1 2.5,-1.7 0.7,-0.7 1.3,-1.5 1.7,-2.5 0.4,-0.9 0.6,-2 0.6,-3 v -17.6 c 0,-2.4 -0.5,-4.7 -1.4,-6.9 -0.9,-2.1 -2.2,-4 -3.8,-5.6 -1.6,-1.6 -3.5,-2.9 -5.6,-3.8 -2.1,-0.9 -4.4,-1.4 -6.9,-1.4 h -31 c -1.6,0 -3.2,-0.3 -4.6,-0.9 -1.4,-0.6 -2.7,-1.5 -3.7,-2.5 -1.1,-1.1 -1.9,-2.3 -2.5,-3.7 -0.6,-1.4 -0.9,-3 -0.9,-4.6 v -2.5 c 0,-0.5 0.2,-1 0.6,-1.4 0.4,-0.4 0.8,-0.6 1.4,-0.6 0.6,0 1,0.2 1.4,0.6 0.4,0.4 0.6,0.8 0.6,1.4 v 2.5 c 0,1.1 0.2,2.1 0.6,3 0.4,0.9 1,1.8 1.7,2.5 0.7,0.7 1.5,1.3 2.5,1.7 1,0.4 2,0.6 3.1,0.6 h 31 c 2.9,0 5.7,0.6 8.3,1.7 2.6,1.1 4.9,2.7 7,4.7 2,2 3.6,4.4 4.7,7 1.1,2.6 1.6,5.4 1.6,8.3 v 17.6 c 0,1.5 -0.3,3 -0.8,4.3 -0.5,1.3 -1.3,2.5 -2.2,3.5 h 24.1 z m -63.9,12.3 c 0,-0.7 0.1,-1.4 0.4,-2.1 0.3,-0.6 0.6,-1.2 1.1,-1.7 0.5,-0.5 1,-0.9 1.7,-1.1 0.6,-0.3 1.3,-0.4 2.1,-0.4 0.7,0 1.4,0.1 2.1,0.4 0.6,0.3 1.2,0.6 1.7,1.1 0.5,0.5 0.9,1 1.1,1.7 0.3,0.6 0.4,1.3 0.4,2.1 0,0.7 -0.1,1.4 -0.4,2.1 -0.3,0.6 -0.6,1.2 -1.1,1.7 -0.5,0.5 -1,0.9 -1.7,1.2 -0.7,0.3 -1.3,0.4 -2.1,0.4 -0.7,0 -1.4,-0.1 -2.1,-0.4 -0.6,-0.3 -1.2,-0.7 -1.7,-1.2 -0.5,-0.5 -0.9,-1 -1.1,-1.7 -0.3,-0.7 -0.4,-1.4 -0.4,-2.1 z"
   style="fill:#ffffff" />
		<path
   id="XMLID_40_"
   class="st2"
   d="m 514.1,327.1 c 0.4,0.4 0.6,0.8 0.6,1.4 0,0.5 -0.2,1 -0.6,1.4 -0.4,0.4 -0.8,0.6 -1.4,0.6 h -1.6 c -2.1,0 -4,-0.5 -5.7,-1.4 -1.7,-0.9 -3.1,-2.2 -4.2,-3.8 -1.1,1.6 -2.4,2.9 -4.2,3.8 -1.7,0.9 -3.6,1.4 -5.7,1.4 h -29.2 c -0.5,0 -1,-0.2 -1.4,-0.6 -0.4,-0.4 -0.6,-0.8 -0.6,-1.4 0,-0.5 0.2,-1 0.6,-1.4 0.4,-0.4 0.8,-0.6 1.4,-0.6 h 29.2 c 1.1,0 2.1,-0.2 3,-0.6 0.9,-0.4 1.8,-1 2.5,-1.7 0.7,-0.7 1.3,-1.6 1.7,-2.5 0.4,-0.9 0.6,-2 0.6,-3 v -37.2 c 0,-0.5 0.2,-1 0.6,-1.4 0.4,-0.4 0.8,-0.6 1.4,-0.6 0.6,0 1,0.2 1.4,0.6 0.4,0.4 0.6,0.8 0.6,1.4 v 37.2 c 0,1.1 0.2,2.1 0.6,3 0.4,0.9 1,1.8 1.7,2.5 0.7,0.7 1.6,1.3 2.5,1.7 0.9,0.4 2,0.6 3,0.6 h 1.6 c 0.7,0 1.2,0.2 1.6,0.6 z M 470.5,273 c 0.3,0.6 0.6,1.2 1.1,1.7 0.5,0.5 1,0.9 1.7,1.2 0.6,0.3 1.3,0.4 2.1,0.4 0.7,0 1.4,-0.1 2.1,-0.4 0.7,-0.3 1.2,-0.7 1.7,-1.2 0.5,-0.5 0.9,-1 1.2,-1.7 0.3,-0.6 0.4,-1.3 0.4,-2.1 0,-0.8 -0.1,-1.4 -0.4,-2.1 -0.3,-0.6 -0.7,-1.2 -1.2,-1.7 -0.5,-0.5 -1,-0.9 -1.7,-1.1 -0.6,-0.3 -1.3,-0.4 -2.1,-0.4 -0.7,0 -1.4,0.1 -2.1,0.4 -0.6,0.3 -1.2,0.6 -1.7,1.1 -0.5,0.5 -0.9,1 -1.1,1.7 -0.3,0.6 -0.4,1.3 -0.4,2.1 0,0.8 0.1,1.5 0.4,2.1 z m 13.6,0 c 0.3,0.6 0.6,1.2 1.1,1.7 0.5,0.5 1,0.9 1.7,1.2 0.7,0.3 1.4,0.4 2.1,0.4 0.7,0 1.4,-0.1 2.1,-0.4 0.6,-0.3 1.2,-0.7 1.7,-1.2 0.5,-0.5 0.9,-1 1.1,-1.7 0.3,-0.6 0.4,-1.3 0.4,-2.1 0,-0.8 -0.1,-1.4 -0.4,-2.1 -0.3,-0.6 -0.6,-1.2 -1.1,-1.7 -0.5,-0.5 -1,-0.9 -1.7,-1.1 -0.6,-0.3 -1.3,-0.4 -2.1,-0.4 -0.7,0 -1.4,0.1 -2.1,0.4 -0.7,0.3 -1.2,0.6 -1.7,1.1 -0.5,0.5 -0.9,1 -1.1,1.7 -0.3,0.6 -0.4,1.3 -0.4,2.1 0,0.8 0.1,1.5 0.4,2.1 z"
   style="fill:#ffffff" />
		<path
   id="XMLID_63_"
   class="st2"
   d="m 570.8,286.9 c 2.4,2.4 4.3,5.2 5.6,8.3 1.3,3.1 1.9,6.3 1.9,9.8 0,3.4 -0.6,6.7 -1.9,9.8 -1.3,3.1 -3.1,5.9 -5.6,8.3 -2.4,2.4 -5.1,4.2 -8.2,5.5 -3.1,1.3 -6.3,1.9 -9.8,1.9 -3.4,0 -6.7,-0.6 -9.8,-1.9 -3.1,-1.3 -5.8,-3.1 -8.2,-5.5 -2.2,-2.2 -3.9,-4.6 -5.1,-7.3 -0.3,0.9 -0.6,1.8 -0.9,2.7 -0.4,0.9 -0.7,1.8 -1.2,2.7 -0.6,1.2 -1.4,2.4 -2.3,3.6 -0.9,1.1 -2,2.2 -3.1,3 -1.1,0.8 -2.2,1.5 -3.2,1.9 -1.1,0.5 -2,0.7 -2.8,0.7 h -4.3 c -0.5,0 -1,-0.2 -1.4,-0.6 -0.4,-0.4 -0.6,-0.8 -0.6,-1.4 0,-0.5 0.2,-1 0.6,-1.4 0.4,-0.4 0.8,-0.6 1.4,-0.6 h 4.3 c 0.3,0 0.7,-0.1 1.4,-0.4 0.7,-0.3 1.4,-0.7 2.3,-1.4 0.9,-0.7 1.7,-1.6 2.4,-2.4 0.7,-0.9 1.3,-1.8 1.8,-2.8 2.2,-4.6 3.3,-9.4 3.3,-14.5 0,-3.4 0.6,-6.7 1.9,-9.8 1.3,-3.1 3.1,-5.8 5.6,-8.3 2.4,-2.4 5.1,-4.2 8.2,-5.5 3.1,-1.3 6.3,-1.9 9.8,-1.9 3.4,0 6.7,0.6 9.8,1.9 3,1.4 5.7,3.2 8.1,5.6 z m -18,39.6 c 3,0 5.8,-0.6 8.4,-1.7 2.6,-1.1 4.9,-2.7 6.8,-4.6 1.9,-1.9 3.5,-4.2 4.6,-6.8 1.1,-2.6 1.7,-5.4 1.7,-8.4 0,-3 -0.6,-5.8 -1.7,-8.4 -1.1,-2.6 -2.7,-4.9 -4.6,-6.8 -1.9,-1.9 -4.2,-3.5 -6.8,-4.6 -2.6,-1.1 -5.4,-1.7 -8.4,-1.7 -3,0 -5.8,0.6 -8.4,1.7 -2.6,1.1 -4.9,2.7 -6.8,4.6 -1.9,1.9 -3.5,4.2 -4.6,6.8 -1.1,2.6 -1.7,5.4 -1.7,8.4 0,3 0.6,5.8 1.7,8.4 1.1,2.6 2.7,4.9 4.6,6.8 1.9,1.9 4.2,3.5 6.8,4.6 2.6,1.1 5.4,1.7 8.4,1.7 z"
   style="fill:#ffffff" />
	</g>
	<g
   id="XMLID_14_"
   style="fill:#ffffff">
		<path
   id="XMLID_15_"
   class="st2"
   d="m 363.3,327.1 c 0.4,0.4 0.6,0.8 0.6,1.4 0,0.5 -0.2,1 -0.6,1.4 -0.4,0.4 -0.8,0.6 -1.4,0.6 h -8.6 v 3.9 c 0,1.6 -0.3,3.2 -0.9,4.6 -0.6,1.4 -1.5,2.7 -2.5,3.7 -1,1 -2.3,1.9 -3.7,2.5 -1.4,0.6 -3,0.9 -4.6,0.9 -0.5,0 -1,-0.2 -1.4,-0.6 -0.4,-0.4 -0.6,-0.8 -0.6,-1.4 0,-0.6 0.2,-1 0.6,-1.4 0.4,-0.4 0.8,-0.6 1.4,-0.6 1.1,0 2.1,-0.2 3.1,-0.6 1,-0.4 1.8,-1 2.5,-1.7 0.7,-0.7 1.3,-1.5 1.7,-2.5 0.4,-0.9 0.6,-2 0.6,-3 v -49.6 c 0,-0.5 0.2,-1 0.6,-1.4 0.4,-0.4 0.8,-0.6 1.4,-0.6 0.5,0 1,0.2 1.4,0.6 0.4,0.4 0.6,0.8 0.6,1.4 v 41.8 h 8.6 c 0.4,0 0.8,0.2 1.2,0.6 z"
   style="fill:#ffffff" />
		<path
   id="XMLID_17_"
   class="st2"
   d="m 463.1,326.5 c 0.5,0 1,0.2 1.4,0.6 0.4,0.4 0.6,0.8 0.6,1.4 0,0.5 -0.2,1 -0.6,1.4 -0.4,0.4 -0.8,0.6 -1.4,0.6 h -102 c -0.5,0 -1,-0.2 -1.4,-0.6 -0.4,-0.4 -0.6,-0.8 -0.6,-1.4 0,-0.5 0.2,-1 0.6,-1.4 0.4,-0.4 0.8,-0.6 1.4,-0.6 h 69 c 1.1,0 2.1,-0.2 3,-0.6 0.9,-0.4 1.8,-1 2.5,-1.7 0.7,-0.7 1.3,-1.5 1.7,-2.5 0.4,-0.9 0.6,-2 0.6,-3 v -17.6 c 0,-2.4 -0.5,-4.7 -1.4,-6.9 -0.9,-2.1 -2.2,-4 -3.8,-5.6 -1.6,-1.6 -3.5,-2.9 -5.6,-3.8 -2.1,-0.9 -4.4,-1.4 -6.9,-1.4 h -31 c -1.6,0 -3.2,-0.3 -4.6,-0.9 -1.4,-0.6 -2.7,-1.5 -3.7,-2.5 -1.1,-1.1 -1.9,-2.3 -2.5,-3.7 -0.6,-1.4 -0.9,-3 -0.9,-4.6 v -2.5 c 0,-0.5 0.2,-1 0.6,-1.4 0.4,-0.4 0.8,-0.6 1.4,-0.6 0.6,0 1,0.2 1.4,0.6 0.4,0.4 0.6,0.8 0.6,1.4 v 2.5 c 0,1.1 0.2,2.1 0.6,3 0.4,0.9 1,1.8 1.7,2.5 0.7,0.7 1.5,1.3 2.5,1.7 1,0.4 2,0.6 3.1,0.6 h 31 c 2.9,0 5.7,0.6 8.3,1.7 2.6,1.1 4.9,2.7 7,4.7 2,2 3.6,4.4 4.7,7 1.1,2.6 1.6,5.4 1.6,8.3 v 17.6 c 0,1.5 -0.3,3 -0.8,4.3 -0.5,1.3 -1.3,2.5 -2.2,3.5 h 24.1 z m -63.9,12.3 c 0,-0.7 0.1,-1.4 0.4,-2.1 0.3,-0.6 0.6,-1.2 1.1,-1.7 0.5,-0.5 1,-0.9 1.7,-1.1 0.6,-0.3 1.3,-0.4 2.1,-0.4 0.7,0 1.4,0.1 2.1,0.4 0.6,0.3 1.2,0.6 1.7,1.1 0.5,0.5 0.9,1 1.1,1.7 0.3,0.6 0.4,1.3 0.4,2.1 0,0.7 -0.1,1.4 -0.4,2.1 -0.3,0.6 -0.6,1.2 -1.1,1.7 -0.5,0.5 -1,0.9 -1.7,1.2 -0.7,0.3 -1.3,0.4 -2.1,0.4 -0.7,0 -1.4,-0.1 -2.1,-0.4 -0.6,-0.3 -1.2,-0.7 -1.7,-1.2 -0.5,-0.5 -0.9,-1 -1.1,-1.7 -0.3,-0.7 -0.4,-1.4 -0.4,-2.1 z"
   style="fill:#ffffff" />
		<path
   id="XMLID_20_"
   class="st2"
   d="m 514.1,327.1 c 0.4,0.4 0.6,0.8 0.6,1.4 0,0.5 -0.2,1 -0.6,1.4 -0.4,0.4 -0.8,0.6 -1.4,0.6 h -1.6 c -2.1,0 -4,-0.5 -5.7,-1.4 -1.7,-0.9 -3.1,-2.2 -4.2,-3.8 -1.1,1.6 -2.4,2.9 -4.2,3.8 -1.7,0.9 -3.6,1.4 -5.7,1.4 h -29.2 c -0.5,0 -1,-0.2 -1.4,-0.6 -0.4,-0.4 -0.6,-0.8 -0.6,-1.4 0,-0.5 0.2,-1 0.6,-1.4 0.4,-0.4 0.8,-0.6 1.4,-0.6 h 29.2 c 1.1,0 2.1,-0.2 3,-0.6 0.9,-0.4 1.8,-1 2.5,-1.7 0.7,-0.7 1.3,-1.6 1.7,-2.5 0.4,-0.9 0.6,-2 0.6,-3 v -37.2 c 0,-0.5 0.2,-1 0.6,-1.4 0.4,-0.4 0.8,-0.6 1.4,-0.6 0.6,0 1,0.2 1.4,0.6 0.4,0.4 0.6,0.8 0.6,1.4 v 37.2 c 0,1.1 0.2,2.1 0.6,3 0.4,0.9 1,1.8 1.7,2.5 0.7,0.7 1.6,1.3 2.5,1.7 0.9,0.4 2,0.6 3,0.6 h 1.6 c 0.7,0 1.2,0.2 1.6,0.6 z M 470.5,273 c 0.3,0.6 0.6,1.2 1.1,1.7 0.5,0.5 1,0.9 1.7,1.2 0.6,0.3 1.3,0.4 2.1,0.4 0.7,0 1.4,-0.1 2.1,-0.4 0.7,-0.3 1.2,-0.7 1.7,-1.2 0.5,-0.5 0.9,-1 1.2,-1.7 0.3,-0.6 0.4,-1.3 0.4,-2.1 0,-0.8 -0.1,-1.4 -0.4,-2.1 -0.3,-0.6 -0.7,-1.2 -1.2,-1.7 -0.5,-0.5 -1,-0.9 -1.7,-1.1 -0.6,-0.3 -1.3,-0.4 -2.1,-0.4 -0.7,0 -1.4,0.1 -2.1,0.4 -0.6,0.3 -1.2,0.6 -1.7,1.1 -0.5,0.5 -0.9,1 -1.1,1.7 -0.3,0.6 -0.4,1.3 -0.4,2.1 0,0.8 0.1,1.5 0.4,2.1 z m 13.6,0 c 0.3,0.6 0.6,1.2 1.1,1.7 0.5,0.5 1,0.9 1.7,1.2 0.7,0.3 1.4,0.4 2.1,0.4 0.7,0 1.4,-0.1 2.1,-0.4 0.6,-0.3 1.2,-0.7 1.7,-1.2 0.5,-0.5 0.9,-1 1.1,-1.7 0.3,-0.6 0.4,-1.3 0.4,-2.1 0,-0.8 -0.1,-1.4 -0.4,-2.1 -0.3,-0.6 -0.6,-1.2 -1.1,-1.7 -0.5,-0.5 -1,-0.9 -1.7,-1.1 -0.6,-0.3 -1.3,-0.4 -2.1,-0.4 -0.7,0 -1.4,0.1 -2.1,0.4 -0.7,0.3 -1.2,0.6 -1.7,1.1 -0.5,0.5 -0.9,1 -1.1,1.7 -0.3,0.6 -0.4,1.3 -0.4,2.1 0,0.8 0.1,1.5 0.4,2.1 z"
   style="fill:#ffffff" />
		<path
   id="XMLID_24_"
   class="st2"
   d="m 570.8,286.9 c 2.4,2.4 4.3,5.2 5.6,8.3 1.3,3.1 1.9,6.3 1.9,9.8 0,3.4 -0.6,6.7 -1.9,9.8 -1.3,3.1 -3.1,5.9 -5.6,8.3 -2.4,2.4 -5.1,4.2 -8.2,5.5 -3.1,1.3 -6.3,1.9 -9.8,1.9 -3.4,0 -6.7,-0.6 -9.8,-1.9 -3.1,-1.3 -5.8,-3.1 -8.2,-5.5 -2.2,-2.2 -3.9,-4.6 -5.1,-7.3 -0.3,0.9 -0.6,1.8 -0.9,2.7 -0.4,0.9 -0.7,1.8 -1.2,2.7 -0.6,1.2 -1.4,2.4 -2.3,3.6 -0.9,1.1 -2,2.2 -3.1,3 -1.1,0.8 -2.2,1.5 -3.2,1.9 -1.1,0.5 -2,0.7 -2.8,0.7 h -4.3 c -0.5,0 -1,-0.2 -1.4,-0.6 -0.4,-0.4 -0.6,-0.8 -0.6,-1.4 0,-0.5 0.2,-1 0.6,-1.4 0.4,-0.4 0.8,-0.6 1.4,-0.6 h 4.3 c 0.3,0 0.7,-0.1 1.4,-0.4 0.7,-0.3 1.4,-0.7 2.3,-1.4 0.9,-0.7 1.7,-1.6 2.4,-2.4 0.7,-0.9 1.3,-1.8 1.8,-2.8 2.2,-4.6 3.3,-9.4 3.3,-14.5 0,-3.4 0.6,-6.7 1.9,-9.8 1.3,-3.1 3.1,-5.8 5.6,-8.3 2.4,-2.4 5.1,-4.2 8.2,-5.5 3.1,-1.3 6.3,-1.9 9.8,-1.9 3.4,0 6.7,0.6 9.8,1.9 3,1.4 5.7,3.2 8.1,5.6 z m -18,39.6 c 3,0 5.8,-0.6 8.4,-1.7 2.6,-1.1 4.9,-2.7 6.8,-4.6 1.9,-1.9 3.5,-4.2 4.6,-6.8 1.1,-2.6 1.7,-5.4 1.7,-8.4 0,-3 -0.6,-5.8 -1.7,-8.4 -1.1,-2.6 -2.7,-4.9 -4.6,-6.8 -1.9,-1.9 -4.2,-3.5 -6.8,-4.6 -2.6,-1.1 -5.4,-1.7 -8.4,-1.7 -3,0 -5.8,0.6 -8.4,1.7 -2.6,1.1 -4.9,2.7 -6.8,4.6 -1.9,1.9 -3.5,4.2 -4.6,6.8 -1.1,2.6 -1.7,5.4 -1.7,8.4 0,3 0.6,5.8 1.7,8.4 1.1,2.6 2.7,4.9 4.6,6.8 1.9,1.9 4.2,3.5 6.8,4.6 2.6,1.1 5.4,1.7 8.4,1.7 z"
   style="fill:#ffffff" />
	</g>
	<g
   id="XMLID_30_"
   style="fill:#ffffff">
		<path
   id="XMLID_2_"
   class="st2"
   d="m 363.3,327.1 c 0.4,0.4 0.6,0.8 0.6,1.4 0,0.5 -0.2,1 -0.6,1.4 -0.4,0.4 -0.8,0.6 -1.4,0.6 h -8.6 v 3.9 c 0,1.6 -0.3,3.2 -0.9,4.6 -0.6,1.4 -1.5,2.7 -2.5,3.7 -1,1 -2.3,1.9 -3.7,2.5 -1.4,0.6 -3,0.9 -4.6,0.9 -0.5,0 -1,-0.2 -1.4,-0.6 -0.4,-0.4 -0.6,-0.8 -0.6,-1.4 0,-0.6 0.2,-1 0.6,-1.4 0.4,-0.4 0.8,-0.6 1.4,-0.6 1.1,0 2.1,-0.2 3.1,-0.6 1,-0.4 1.8,-1 2.5,-1.7 0.7,-0.7 1.3,-1.5 1.7,-2.5 0.4,-0.9 0.6,-2 0.6,-3 v -49.6 c 0,-0.5 0.2,-1 0.6,-1.4 0.4,-0.4 0.8,-0.6 1.4,-0.6 0.5,0 1,0.2 1.4,0.6 0.4,0.4 0.6,0.8 0.6,1.4 v 41.8 h 8.6 c 0.4,0 0.8,0.2 1.2,0.6 z"
   style="fill:#ffffff"
   inkscape:export-xdpi="94.60186"
   inkscape:export-ydpi="94.60186" />
		<path
   id="XMLID_4_"
   class="st2"
   d="m 463.1,326.5 c 0.5,0 1,0.2 1.4,0.6 0.4,0.4 0.6,0.8 0.6,1.4 0,0.5 -0.2,1 -0.6,1.4 -0.4,0.4 -0.8,0.6 -1.4,0.6 h -102 c -0.5,0 -1,-0.2 -1.4,-0.6 -0.4,-0.4 -0.6,-0.8 -0.6,-1.4 0,-0.5 0.2,-1 0.6,-1.4 0.4,-0.4 0.8,-0.6 1.4,-0.6 h 69 c 1.1,0 2.1,-0.2 3,-0.6 0.9,-0.4 1.8,-1 2.5,-1.7 0.7,-0.7 1.3,-1.5 1.7,-2.5 0.4,-0.9 0.6,-2 0.6,-3 v -17.6 c 0,-2.4 -0.5,-4.7 -1.4,-6.9 -0.9,-2.1 -2.2,-4 -3.8,-5.6 -1.6,-1.6 -3.5,-2.9 -5.6,-3.8 -2.1,-0.9 -4.4,-1.4 -6.9,-1.4 h -31 c -1.6,0 -3.2,-0.3 -4.6,-0.9 -1.4,-0.6 -2.7,-1.5 -3.7,-2.5 -1.1,-1.1 -1.9,-2.3 -2.5,-3.7 -0.6,-1.4 -0.9,-3 -0.9,-4.6 v -2.5 c 0,-0.5 0.2,-1 0.6,-1.4 0.4,-0.4 0.8,-0.6 1.4,-0.6 0.6,0 1,0.2 1.4,0.6 0.4,0.4 0.6,0.8 0.6,1.4 v 2.5 c 0,1.1 0.2,2.1 0.6,3 0.4,0.9 1,1.8 1.7,2.5 0.7,0.7 1.5,1.3 2.5,1.7 1,0.4 2,0.6 3.1,0.6 h 31 c 2.9,0 5.7,0.6 8.3,1.7 2.6,1.1 4.9,2.7 7,4.7 2,2 3.6,4.4 4.7,7 1.1,2.6 1.6,5.4 1.6,8.3 v 17.6 c 0,1.5 -0.3,3 -0.8,4.3 -0.5,1.3 -1.3,2.5 -2.2,3.5 h 24.1 z m -63.9,12.3 c 0,-0.7 0.1,-1.4 0.4,-2.1 0.3,-0.6 0.6,-1.2 1.1,-1.7 0.5,-0.5 1,-0.9 1.7,-1.1 0.6,-0.3 1.3,-0.4 2.1,-0.4 0.7,0 1.4,0.1 2.1,0.4 0.6,0.3 1.2,0.6 1.7,1.1 0.5,0.5 0.9,1 1.1,1.7 0.3,0.6 0.4,1.3 0.4,2.1 0,0.7 -0.1,1.4 -0.4,2.1 -0.3,0.6 -0.6,1.2 -1.1,1.7 -0.5,0.5 -1,0.9 -1.7,1.2 -0.7,0.3 -1.3,0.4 -2.1,0.4 -0.7,0 -1.4,-0.1 -2.1,-0.4 -0.6,-0.3 -1.2,-0.7 -1.7,-1.2 -0.5,-0.5 -0.9,-1 -1.1,-1.7 -0.3,-0.7 -0.4,-1.4 -0.4,-2.1 z"
   style="fill:#ffffff"
   inkscape:export-xdpi="94.60186"
   inkscape:export-ydpi="94.60186" />
		<path
   id="XMLID_7_"
   class="st2"
   d="m 514.1,327.1 c 0.4,0.4 0.6,0.8 0.6,1.4 0,0.5 -0.2,1 -0.6,1.4 -0.4,0.4 -0.8,0.6 -1.4,0.6 h -1.6 c -2.1,0 -4,-0.5 -5.7,-1.4 -1.7,-0.9 -3.1,-2.2 -4.2,-3.8 -1.1,1.6 -2.4,2.9 -4.2,3.8 -1.7,0.9 -3.6,1.4 -5.7,1.4 h -29.2 c -0.5,0 -1,-0.2 -1.4,-0.6 -0.4,-0.4 -0.6,-0.8 -0.6,-1.4 0,-0.5 0.2,-1 0.6,-1.4 0.4,-0.4 0.8,-0.6 1.4,-0.6 h 29.2 c 1.1,0 2.1,-0.2 3,-0.6 0.9,-0.4 1.8,-1 2.5,-1.7 0.7,-0.7 1.3,-1.6 1.7,-2.5 0.4,-0.9 0.6,-2 0.6,-3 v -37.2 c 0,-0.5 0.2,-1 0.6,-1.4 0.4,-0.4 0.8,-0.6 1.4,-0.6 0.6,0 1,0.2 1.4,0.6 0.4,0.4 0.6,0.8 0.6,1.4 v 37.2 c 0,1.1 0.2,2.1 0.6,3 0.4,0.9 1,1.8 1.7,2.5 0.7,0.7 1.6,1.3 2.5,1.7 0.9,0.4 2,0.6 3,0.6 h 1.6 c 0.7,0 1.2,0.2 1.6,0.6 z M 470.5,273 c 0.3,0.6 0.6,1.2 1.1,1.7 0.5,0.5 1,0.9 1.7,1.2 0.6,0.3 1.3,0.4 2.1,0.4 0.7,0 1.4,-0.1 2.1,-0.4 0.7,-0.3 1.2,-0.7 1.7,-1.2 0.5,-0.5 0.9,-1 1.2,-1.7 0.3,-0.6 0.4,-1.3 0.4,-2.1 0,-0.8 -0.1,-1.4 -0.4,-2.1 -0.3,-0.6 -0.7,-1.2 -1.2,-1.7 -0.5,-0.5 -1,-0.9 -1.7,-1.1 -0.6,-0.3 -1.3,-0.4 -2.1,-0.4 -0.7,0 -1.4,0.1 -2.1,0.4 -0.6,0.3 -1.2,0.6 -1.7,1.1 -0.5,0.5 -0.9,1 -1.1,1.7 -0.3,0.6 -0.4,1.3 -0.4,2.1 0,0.8 0.1,1.5 0.4,2.1 z m 13.6,0 c 0.3,0.6 0.6,1.2 1.1,1.7 0.5,0.5 1,0.9 1.7,1.2 0.7,0.3 1.4,0.4 2.1,0.4 0.7,0 1.4,-0.1 2.1,-0.4 0.6,-0.3 1.2,-0.7 1.7,-1.2 0.5,-0.5 0.9,-1 1.1,-1.7 0.3,-0.6 0.4,-1.3 0.4,-2.1 0,-0.8 -0.1,-1.4 -0.4,-2.1 -0.3,-0.6 -0.6,-1.2 -1.1,-1.7 -0.5,-0.5 -1,-0.9 -1.7,-1.1 -0.6,-0.3 -1.3,-0.4 -2.1,-0.4 -0.7,0 -1.4,0.1 -2.1,0.4 -0.7,0.3 -1.2,0.6 -1.7,1.1 -0.5,0.5 -0.9,1 -1.1,1.7 -0.3,0.6 -0.4,1.3 -0.4,2.1 0,0.8 0.1,1.5 0.4,2.1 z"
   style="fill:#ffffff"
   inkscape:export-xdpi="94.60186"
   inkscape:export-ydpi="94.60186" />
		<path
   id="XMLID_11_"
   class="st2"
   d="m 570.8,286.9 c 2.4,2.4 4.3,5.2 5.6,8.3 1.3,3.1 1.9,6.3 1.9,9.8 0,3.4 -0.6,6.7 -1.9,9.8 -1.3,3.1 -3.1,5.9 -5.6,8.3 -2.4,2.4 -5.1,4.2 -8.2,5.5 -3.1,1.3 -6.3,1.9 -9.8,1.9 -3.4,0 -6.7,-0.6 -9.8,-1.9 -3.1,-1.3 -5.8,-3.1 -8.2,-5.5 -2.2,-2.2 -3.9,-4.6 -5.1,-7.3 -0.3,0.9 -0.6,1.8 -0.9,2.7 -0.4,0.9 -0.7,1.8 -1.2,2.7 -0.6,1.2 -1.4,2.4 -2.3,3.6 -0.9,1.1 -2,2.2 -3.1,3 -1.1,0.8 -2.2,1.5 -3.2,1.9 -1.1,0.5 -2,0.7 -2.8,0.7 h -4.3 c -0.5,0 -1,-0.2 -1.4,-0.6 -0.4,-0.4 -0.6,-0.8 -0.6,-1.4 0,-0.5 0.2,-1 0.6,-1.4 0.4,-0.4 0.8,-0.6 1.4,-0.6 h 4.3 c 0.3,0 0.7,-0.1 1.4,-0.4 0.7,-0.3 1.4,-0.7 2.3,-1.4 0.9,-0.7 1.7,-1.6 2.4,-2.4 0.7,-0.9 1.3,-1.8 1.8,-2.8 2.2,-4.6 3.3,-9.4 3.3,-14.5 0,-3.4 0.6,-6.7 1.9,-9.8 1.3,-3.1 3.1,-5.8 5.6,-8.3 2.4,-2.4 5.1,-4.2 8.2,-5.5 3.1,-1.3 6.3,-1.9 9.8,-1.9 3.4,0 6.7,0.6 9.8,1.9 3,1.4 5.7,3.2 8.1,5.6 z m -18,39.6 c 3,0 5.8,-0.6 8.4,-1.7 2.6,-1.1 4.9,-2.7 6.8,-4.6 1.9,-1.9 3.5,-4.2 4.6,-6.8 1.1,-2.6 1.7,-5.4 1.7,-8.4 0,-3 -0.6,-5.8 -1.7,-8.4 -1.1,-2.6 -2.7,-4.9 -4.6,-6.8 -1.9,-1.9 -4.2,-3.5 -6.8,-4.6 -2.6,-1.1 -5.4,-1.7 -8.4,-1.7 -3,0 -5.8,0.6 -8.4,1.7 -2.6,1.1 -4.9,2.7 -6.8,4.6 -1.9,1.9 -3.5,4.2 -4.6,6.8 -1.1,2.6 -1.7,5.4 -1.7,8.4 0,3 0.6,5.8 1.7,8.4 1.1,2.6 2.7,4.9 4.6,6.8 1.9,1.9 4.2,3.5 6.8,4.6 2.6,1.1 5.4,1.7 8.4,1.7 z"
   style="fill:#ffffff"
   inkscape:export-xdpi="94.60186"
   inkscape:export-ydpi="94.60186" />
	</g>
</g>
</svg>
